<svg xmlns="http://www.w3.org/2000/svg" viewBox="0 0 300 300"><defs><style>.a{fill:#d8edf7;}.b{fill:#333;}.c{fill:none;}.d{fill:#eee;}</style></defs><title>url-profile</title><circle class="a" cx="150" cy="150" r="147.5"/><path class="b" d="M150,5A145,145,0,0,1,252.53,252.53,145,145,0,1,1,47.47,47.47,144,144,0,0,1,150,5m0-5A150,150,0,1,0,300,150,150,150,0,0,0,150,0Z"/><path class="c" d="M79.68,173.61c5.78-.87,10.63.49,15.77,3.38,10.92,6.15,21.84,12.85,33.61,16.78,22.9,7.65,44.68,2.39,65.05-9.69,1.47-.87,2.87-1.85,4.31-2.78,17.32-11.29,35.26-9.17,49.81,6,12.69,13.18,18.49,29.71,21.21,47.2.28,1.76.52,3.53.74,5.31a150,150,0,1,0-240.4-.05c1.91-13.12,5.28-25.94,11.75-38C49.81,186.27,62,176.26,79.68,173.61ZM150.24,50c36.89.07,67,30.33,66.83,67.05a66.95,66.95,0,1,1-66.83-67Z"/><path class="b" d="M270.18,239.77c-.22-1.78-.46-3.55-.74-5.31-2.72-17.49-8.52-34-21.21-47.2-14.55-15.13-32.49-17.25-49.81-6-1.44.93-2.84,1.91-4.31,2.78-20.37,12.08-42.15,17.34-65.05,9.69-11.77-3.93-22.69-10.63-33.61-16.78-5.14-2.89-10-4.25-15.77-3.38C62,176.26,49.81,186.27,41.53,201.72c-6.47,12.06-9.84,24.88-11.75,38a150,150,0,0,0,240.4.05Z"/><path class="b" d="M150.33,183.31a66.55,66.55,0,0,0,66.74-66.26c.22-36.72-29.94-67-66.83-67a66.66,66.66,0,1,0,.09,133.31Z"/><path class="b" d="M150,5A145,145,0,0,1,252.53,252.53,145,145,0,1,1,47.47,47.47,144,144,0,0,1,150,5m0-5A150,150,0,1,0,300,150,150,150,0,0,0,150,0Z"/><path class="d" d="M57.53,222.28h.16A1.71,1.71,0,0,1,59.35,224a1.52,1.52,0,0,1-.51,1.18,1.8,1.8,0,0,1-1.26.47,1.71,1.71,0,0,1-1.37-.66,2.87,2.87,0,0,1-.54-1.87,4.76,4.76,0,0,1,.47-2.08,4.58,4.58,0,0,1,1.17-1.54,2,2,0,0,1,1.23-.57.7.7,0,0,1,.56.22.74.74,0,0,1,.21.55.78.78,0,0,1-.44.73,2.9,2.9,0,0,0-.94.76A1.88,1.88,0,0,0,57.53,222.28Zm5,0h.14A1.71,1.71,0,0,1,64.29,224a1.57,1.57,0,0,1-.51,1.19,1.77,1.77,0,0,1-1.26.48,1.67,1.67,0,0,1-1.37-.67,2.94,2.94,0,0,1-.54-1.88,4.65,4.65,0,0,1,.28-1.63,5.11,5.11,0,0,1,.72-1.33,4,4,0,0,1,1-.9,1.72,1.72,0,0,1,.91-.33.74.74,0,0,1,.57.21.78.78,0,0,1,.2.56.77.77,0,0,1-.44.73,2.81,2.81,0,0,0-.93.77A2.08,2.08,0,0,0,62.5,222.28Z"/><path class="d" d="M74.51,229.25H71.45v4.67a2.18,2.18,0,0,1-.47,1.51,1.66,1.66,0,0,1-2.4,0,2.16,2.16,0,0,1-.46-1.5V221.25a2.08,2.08,0,0,1,.5-1.58,2.33,2.33,0,0,1,1.61-.47h4.28a11,11,0,0,1,2.92.3,4.19,4.19,0,0,1,1.74.93A4.11,4.11,0,0,1,80.29,222a5.72,5.72,0,0,1,.38,2.12A4.72,4.72,0,0,1,79.12,228,7.06,7.06,0,0,1,74.51,229.25Zm-.81-7.54H71.45v5H73.7a6.56,6.56,0,0,0,2-.25,2.25,2.25,0,0,0,1.21-.81,2.44,2.44,0,0,0,.41-1.47,2.47,2.47,0,0,0-.64-1.77C76.17,222,75.19,221.71,73.7,221.71Z"/><path class="d" d="M89.09,228.63H87.92v5.29a2.17,2.17,0,0,1-.46,1.53,1.58,1.58,0,0,1-1.2.5,1.51,1.51,0,0,1-1.24-.52,2.29,2.29,0,0,1-.44-1.51V221.25a1.77,1.77,0,0,1,2-2.05h5.42a17.16,17.16,0,0,1,1.92.1,4.63,4.63,0,0,1,1.44.39,4,4,0,0,1,1.37.93,3.87,3.87,0,0,1,.9,1.41,4.58,4.58,0,0,1,.31,1.7,4.06,4.06,0,0,1-1,2.94,5.85,5.85,0,0,1-3.15,1.56,6.31,6.31,0,0,1,1.7,1.39,14.3,14.3,0,0,1,1.44,2,13.41,13.41,0,0,1,1,1.88,3.67,3.67,0,0,1,.36,1.15,1.28,1.28,0,0,1-.21.65,1.46,1.46,0,0,1-.57.5,1.72,1.72,0,0,1-.83.19,1.61,1.61,0,0,1-1-.27,2.4,2.4,0,0,1-.65-.66c-.19-.27-.43-.67-.75-1.19L93,231.6a11.42,11.42,0,0,0-1.28-1.86,3.19,3.19,0,0,0-1.15-.88A3.91,3.91,0,0,0,89.09,228.63ZM91,221.71H87.92v4.52h3a8.88,8.88,0,0,0,2-.2,2.43,2.43,0,0,0,1.25-.71,2,2,0,0,0,.43-1.38,2,2,0,0,0-.35-1.2,2.14,2.14,0,0,0-1-.79A7.15,7.15,0,0,0,91,221.71Z"/><path class="d" d="M109.54,218.92a8.84,8.84,0,0,1,4.4,1,6.75,6.75,0,0,1,2.78,3,10,10,0,0,1,.94,4.49,10.81,10.81,0,0,1-.52,3.47,7.54,7.54,0,0,1-1.54,2.71,6.8,6.8,0,0,1-2.54,1.75,9.11,9.11,0,0,1-3.45.61,9,9,0,0,1-3.46-.63,6.83,6.83,0,0,1-2.55-1.75,7.46,7.46,0,0,1-1.54-2.73,11,11,0,0,1-.52-3.45,10.67,10.67,0,0,1,.54-3.48,7.39,7.39,0,0,1,1.58-2.7,7,7,0,0,1,2.51-1.7A9.16,9.16,0,0,1,109.54,218.92Zm4.74,8.47a7.67,7.67,0,0,0-.58-3.13,4.4,4.4,0,0,0-1.67-2,4.6,4.6,0,0,0-2.49-.68,4.49,4.49,0,0,0-1.84.38,4,4,0,0,0-1.47,1.09,5.24,5.24,0,0,0-1,1.84,8.14,8.14,0,0,0-.35,2.51,8.39,8.39,0,0,0,.35,2.54,5.19,5.19,0,0,0,1,1.88,4.18,4.18,0,0,0,1.48,1.12,4.69,4.69,0,0,0,4.19-.27,4.54,4.54,0,0,0,1.71-2A7.69,7.69,0,0,0,114.28,227.39Z"/><path class="d" d="M131.5,221.77h-6.57V226h5.49a1.64,1.64,0,0,1,1.14.34,1.18,1.18,0,0,1,.38.91,1.15,1.15,0,0,1-.38.91,1.65,1.65,0,0,1-1.14.34h-5.49v5.43a2.19,2.19,0,0,1-.46,1.53,1.69,1.69,0,0,1-2.41,0,2.16,2.16,0,0,1-.46-1.52V221.25a2.87,2.87,0,0,1,.21-1.18,1.35,1.35,0,0,1,.67-.66,2.77,2.77,0,0,1,1.16-.21h7.86a1.71,1.71,0,0,1,1.19.36,1.16,1.16,0,0,1,.38.92,1.19,1.19,0,0,1-.38.94A1.71,1.71,0,0,1,131.5,221.77Z"/><path class="d" d="M136.84,233.92v-13a2.15,2.15,0,0,1,.46-1.51,1.54,1.54,0,0,1,1.19-.51,1.61,1.61,0,0,1,1.22.5,2.16,2.16,0,0,1,.47,1.52v13a2.16,2.16,0,0,1-.47,1.52,1.58,1.58,0,0,1-1.22.51,1.52,1.52,0,0,1-1.18-.51A2.2,2.2,0,0,1,136.84,233.92Z"/><path class="d" d="M148.32,220.94v12h6.76a1.77,1.77,0,0,1,1.24.39,1.28,1.28,0,0,1,.44,1,1.23,1.23,0,0,1-.43,1,1.83,1.83,0,0,1-1.25.38H147a2.11,2.11,0,0,1-1.57-.49,2.19,2.19,0,0,1-.47-1.56V220.94a2.2,2.2,0,0,1,.45-1.51,1.54,1.54,0,0,1,1.2-.51,1.61,1.61,0,0,1,1.22.5A2.16,2.16,0,0,1,148.32,220.94Z"/><path class="d" d="M171,221.77h-7.52v4h6.92a1.64,1.64,0,0,1,1.14.34,1.17,1.17,0,0,1,.38.9,1.24,1.24,0,0,1-.37.92,1.6,1.6,0,0,1-1.15.35h-6.92V233h7.78a1.72,1.72,0,0,1,1.18.36,1.27,1.27,0,0,1,.4,1,1.24,1.24,0,0,1-.4,1,1.72,1.72,0,0,1-1.18.37h-9.07a2.11,2.11,0,0,1-1.57-.49,2.19,2.19,0,0,1-.47-1.56V221.25a2.87,2.87,0,0,1,.21-1.18,1.35,1.35,0,0,1,.67-.66,2.77,2.77,0,0,1,1.16-.21H171a1.68,1.68,0,0,1,1.18.36,1.17,1.17,0,0,1,.39.92,1.2,1.2,0,0,1-.39.94A1.68,1.68,0,0,1,171,221.77Z"/><path class="d" d="M178.41,236a1.72,1.72,0,0,1-1.2-.45,1.59,1.59,0,0,1-.51-1.26,1.63,1.63,0,0,1,.48-1.18,1.61,1.61,0,0,1,1.19-.49,1.64,1.64,0,0,1,1.21.49,1.59,1.59,0,0,1,.5,1.18,1.61,1.61,0,0,1-.5,1.25A1.65,1.65,0,0,1,178.41,236Z"/><path class="d" d="M194.51,220.94v8.63a17,17,0,0,1-.1,1.91,6.08,6.08,0,0,1-.43,1.59,4.31,4.31,0,0,1-1.86,2.12A6.06,6.06,0,0,1,189,236a6.55,6.55,0,0,1-2.79-.53,4,4,0,0,1-1.8-1.71,6.19,6.19,0,0,1-.59-1.45,5.81,5.81,0,0,1-.22-1.56,1.56,1.56,0,0,1,.44-1.2,1.53,1.53,0,0,1,1.12-.41,1.25,1.25,0,0,1,1,.38,2.7,2.7,0,0,1,.52,1.19A9.55,9.55,0,0,0,187,232a2.05,2.05,0,0,0,.64.89,2,2,0,0,0,1.28.37c1.47,0,2.21-1.08,2.21-3.25v-9.11a2.25,2.25,0,0,1,.44-1.51,1.53,1.53,0,0,1,1.21-.51,1.56,1.56,0,0,1,1.23.51A2.2,2.2,0,0,1,194.51,220.94Z"/><path class="d" d="M205.66,229.25h-3v4.67a2.14,2.14,0,0,1-.48,1.51A1.51,1.51,0,0,1,201,236a1.56,1.56,0,0,1-1.22-.51,2.21,2.21,0,0,1-.46-1.5V221.25a2.08,2.08,0,0,1,.51-1.58,2.3,2.3,0,0,1,1.6-.47h4.28a10.9,10.9,0,0,1,2.92.3,4.17,4.17,0,0,1,1.75.93,4.21,4.21,0,0,1,1.12,1.59,5.72,5.72,0,0,1,.38,2.12,4.72,4.72,0,0,1-1.55,3.82A7.09,7.09,0,0,1,205.66,229.25Zm-.81-7.54h-2.24v5h2.24a6.47,6.47,0,0,0,2-.25,2.25,2.25,0,0,0,1.21-.81,2.37,2.37,0,0,0,.42-1.47,2.51,2.51,0,0,0-.64-1.77A4.27,4.27,0,0,0,204.85,221.71Z"/><path class="d" d="M230.8,229v3.16a3.36,3.36,0,0,1-.12,1,1.62,1.62,0,0,1-.46.68,3.94,3.94,0,0,1-.85.59,13.31,13.31,0,0,1-2.87,1.18,11.93,11.93,0,0,1-3,.37,9.77,9.77,0,0,1-3.46-.59,7.26,7.26,0,0,1-2.66-1.69,7.34,7.34,0,0,1-1.69-2.7,10.11,10.11,0,0,1-.59-3.54,10.38,10.38,0,0,1,.57-3.51,7.12,7.12,0,0,1,1.69-2.71,7.49,7.49,0,0,1,2.7-1.7,10.49,10.49,0,0,1,3.62-.59,8.82,8.82,0,0,1,2.94.45,6.38,6.38,0,0,1,2.08,1.11,5.05,5.05,0,0,1,1.2,1.43,2.88,2.88,0,0,1,.4,1.34,1.42,1.42,0,0,1-.46,1.07,1.6,1.6,0,0,1-1.12.44,1.41,1.41,0,0,1-.69-.17,1.59,1.59,0,0,1-.56-.47,12.82,12.82,0,0,0-1-1.46,3.51,3.51,0,0,0-1.15-.83,4.46,4.46,0,0,0-1.85-.34,5.15,5.15,0,0,0-2.06.4,4.26,4.26,0,0,0-1.56,1.16,5.16,5.16,0,0,0-1,1.86,8.06,8.06,0,0,0-.34,2.43,6.65,6.65,0,0,0,1.33,4.46,4.61,4.61,0,0,0,3.71,1.56,7.59,7.59,0,0,0,2.17-.3,10.88,10.88,0,0,0,2.06-.86v-2.68h-2.58a2.81,2.81,0,0,1-1.41-.28,1,1,0,0,1-.47-1,1.18,1.18,0,0,1,.39-.91,1.58,1.58,0,0,1,1.09-.36h3.78a4.93,4.93,0,0,1,1.18.12,1.39,1.39,0,0,1,.78.55A2.24,2.24,0,0,1,230.8,229Z"/><path class="d" d="M236,222.33h-.16a1.55,1.55,0,0,1-1.14-.52,1.64,1.64,0,0,1-.51-1.2,1.58,1.58,0,0,1,.51-1.2,1.73,1.73,0,0,1,1.25-.49,1.66,1.66,0,0,1,1.37.68,2.91,2.91,0,0,1,.54,1.87,4.69,4.69,0,0,1-.47,2.07,4.56,4.56,0,0,1-1.14,1.55,2,2,0,0,1-1.23.57.75.75,0,0,1-.57-.22.69.69,0,0,1-.22-.53.76.76,0,0,1,.46-.74,3.35,3.35,0,0,0,.93-.77A1.79,1.79,0,0,0,236,222.33Zm4.95,0h-.14a1.7,1.7,0,0,1-1.17-2.92,1.77,1.77,0,0,1,1.26-.49,1.68,1.68,0,0,1,1.38.66,3,3,0,0,1,.53,1.89,4.76,4.76,0,0,1-.47,2.1,4.43,4.43,0,0,1-1.14,1.52,2,2,0,0,1-1.24.57.81.81,0,0,1-.58-.21.76.76,0,0,1-.21-.54.78.78,0,0,1,.46-.74,3.46,3.46,0,0,0,1-.77A1.92,1.92,0,0,0,241,222.33Z"/></svg>