<svg xmlns="http://www.w3.org/2000/svg" viewBox="0 0 300 300"><defs><style>.a{fill:#aea79f;}.b{fill:#efb73e;}.c{fill:#1d1d1b;}.d{fill:#fff;}.e{opacity:0.4;}.f,.g,.i,.j,.k,.l{fill:none;}.f,.g{stroke:#7c7c7c;}.f,.g,.h,.i,.j,.k,.l{stroke-miterlimit:10;}.f,.g,.k,.l{stroke-width:20px;}.g,.l{stroke-linecap:round;}.h{fill:#92dff4;stroke-width:0.64px;}.h,.k,.l{stroke:#000;}.h,.i,.j{opacity:0.5;isolation:isolate;}.i,.j{stroke:#fff;}.i{stroke-width:13px;}.j{stroke-width:8px;}</style></defs><title>building-url</title><rect class="a" x="84.35" y="28.01" width="131.31" height="18.76"/><path class="b" d="M126.55,28a23.45,23.45,0,1,1,46.9,0"/><rect class="b" x="89.03" y="42.08" width="121.92" height="18.76"/><rect class="a" x="89.03" y="60.84" width="120.5" height="239.16"/><rect class="a" x="4.63" y="99.38" width="84.41" height="17.73"/><rect class="a" x="210.96" y="99.38" width="84.41" height="17.73"/><rect class="b" x="4.63" y="117.11" width="84.41" height="182.89"/><rect class="b" x="210.96" y="117.11" width="84.41" height="182.89"/><rect class="c" x="14.01" y="112.55" width="65.65" height="9.13"/><rect class="c" x="98.42" y="56.27" width="103.17" height="9.13"/><rect class="c" x="18.82" y="135.87" width="9.13" height="18.76"/><rect class="d" x="42.27" y="135.87" width="9.13" height="18.76"/><rect class="c" x="65.72" y="135.87" width="9.13" height="18.76"/><rect class="d" x="103.23" y="74.91" width="9.13" height="18.76"/><rect class="c" x="131.37" y="74.91" width="9.13" height="18.76"/><rect class="c" x="159.5" y="74.91" width="9.13" height="18.76"/><rect class="c" x="187.64" y="74.91" width="9.13" height="18.76"/><rect class="c" x="103.23" y="107.73" width="9.13" height="18.76"/><rect class="d" x="131.37" y="107.73" width="9.13" height="18.76"/><rect class="c" x="159.5" y="107.73" width="9.13" height="18.76"/><rect class="c" x="187.64" y="107.73" width="9.13" height="18.76"/><rect class="c" x="103.23" y="140.56" width="9.13" height="18.76"/><rect class="c" x="131.37" y="140.56" width="9.13" height="18.76"/><rect class="d" x="159.5" y="140.56" width="9.13" height="18.76"/><rect class="d" x="187.64" y="140.56" width="9.13" height="18.76"/><rect class="c" x="103.23" y="173.38" width="9.13" height="18.76"/><rect class="d" x="131.37" y="173.38" width="9.13" height="18.76"/><rect class="c" x="159.5" y="173.38" width="9.13" height="18.76"/><rect class="c" x="187.64" y="173.38" width="9.13" height="18.76"/><rect class="c" x="103.23" y="206.21" width="9.13" height="18.76"/><rect class="c" x="131.37" y="206.21" width="9.13" height="18.76"/><rect class="d" x="159.5" y="206.21" width="9.13" height="18.76"/><rect class="c" x="187.64" y="206.21" width="9.13" height="18.76"/><rect class="c" x="103.23" y="239.03" width="9.13" height="18.76"/><rect class="d" x="131.37" y="239.03" width="9.13" height="18.76"/><rect class="c" x="159.5" y="239.03" width="9.13" height="18.76"/><rect class="c" x="187.64" y="239.03" width="9.13" height="18.76"/><rect class="d" x="103.23" y="271.86" width="9.13" height="18.76"/><rect class="c" x="131.37" y="271.86" width="9.13" height="18.76"/><rect class="c" x="159.5" y="271.86" width="9.13" height="18.76"/><rect class="d" x="187.64" y="271.86" width="9.13" height="18.76"/><rect class="d" x="18.82" y="168.69" width="9.13" height="18.76"/><rect class="c" x="42.27" y="168.69" width="9.13" height="18.76"/><rect class="c" x="65.72" y="168.69" width="9.13" height="18.76"/><rect class="c" x="18.82" y="201.52" width="9.13" height="18.76"/><rect class="d" x="42.27" y="201.52" width="9.13" height="18.76"/><rect class="c" x="65.72" y="201.52" width="9.13" height="18.76"/><rect class="c" x="18.82" y="234.35" width="9.13" height="18.76"/><rect class="d" x="42.27" y="234.35" width="9.13" height="18.76"/><rect class="c" x="65.72" y="234.35" width="9.13" height="18.76"/><rect class="c" x="18.82" y="267.17" width="9.13" height="18.76"/><rect class="c" x="42.27" y="267.17" width="9.13" height="18.76"/><rect class="d" x="65.72" y="267.17" width="9.13" height="18.76"/><rect class="c" x="220.34" y="112.55" width="65.65" height="9.13"/><rect class="c" x="272.05" y="135.87" width="9.13" height="18.76"/><rect class="c" x="248.61" y="135.87" width="9.13" height="18.76"/><rect class="c" x="225.15" y="135.87" width="9.13" height="18.76"/><rect class="c" x="272.05" y="168.69" width="9.13" height="18.76"/><rect class="c" x="248.61" y="168.69" width="9.13" height="18.76"/><rect class="d" x="225.15" y="168.69" width="9.13" height="18.76"/><rect class="c" x="272.05" y="201.52" width="9.13" height="18.76"/><rect class="d" x="248.61" y="201.52" width="9.13" height="18.76"/><rect class="c" x="225.15" y="201.52" width="9.13" height="18.76"/><rect class="d" x="272.05" y="234.35" width="9.13" height="18.76"/><rect class="c" x="248.61" y="234.35" width="9.13" height="18.76"/><rect class="c" x="225.15" y="234.35" width="9.13" height="18.76"/><rect class="c" x="272.05" y="267.17" width="9.13" height="18.76"/><rect class="d" x="248.61" y="267.17" width="9.13" height="18.76"/><rect class="c" x="225.15" y="267.17" width="9.13" height="18.76"/><path class="c" d="M177.63,23.45a28,28,0,0,0-55.26,0h-38v9.12h131.3V23.45ZM150,9.13a18.9,18.9,0,0,1,18.32,14.32H131.68A18.9,18.9,0,0,1,150,9.13Z"/><rect class="c" x="234.54" y="56.15" width="9.13" height="9.38"/><polygon class="c" points="243.66 93.79 243.66 70.22 234.54 70.22 234.54 93.79 215.53 93.79 215.53 37.52 84.47 37.52 84.47 93.79 65.46 93.79 65.46 70.22 56.34 70.22 56.34 93.79 0.06 93.79 0.06 300 9.19 300 9.19 102.92 84.47 102.92 84.47 300 93.6 300 93.6 46.64 206.4 46.64 206.4 300 215.53 300 215.53 102.92 290.81 102.92 290.81 300 299.94 300 299.94 93.79 243.66 93.79"/><rect class="c" x="56.33" y="56.15" width="9.13" height="9.38"/><g class="e"><ellipse class="f" cx="185.36" cy="92.32" rx="45.71" ry="44.72"/><line class="g" x1="216.17" y1="132.96" x2="258.29" y2="190"/></g><ellipse class="h" cx="193.83" cy="84.72" rx="45.71" ry="44.72"/><line class="i" x1="148.57" y1="105.45" x2="215.53" y2="52.94"/><line class="j" x1="160.39" y1="117.51" x2="227.35" y2="65.06"/><ellipse class="k" cx="193.71" cy="85.29" rx="45.71" ry="44.72"/><line class="l" x1="224.58" y1="125.93" x2="266.64" y2="182.96"/><rect class="c" y="293" width="300" height="7"/></svg>