<svg xmlns="http://www.w3.org/2000/svg" viewBox="0 0 1000 102.5"><defs><style>.a{fill:#fff;}.b{fill:#efb73e;}.c{fill:#df382c;}.d{fill:#aea79f;}.e{fill:#1d1d1b;}.f,.q,.r{fill:none;}.g{fill:#be1622;}.h{fill:#38b44a;}.i{fill:#c6cbcc;}.j{fill:#e95420;}.k{fill:#fcd890;}.l{fill:#f9c76e;}.m{fill:#e5aa53;}.n{fill:#27a2db;}.o{fill:#5d8da5;}.p{fill:#777;}.q{stroke:#27a2db;stroke-width:3px;}.q,.r{stroke-miterlimit:10;}.r{stroke:#333;stroke-width:5px;}</style></defs><title>url-city</title><polygon class="a" points="997.97 9.35 972.91 29.67 974.52 31.23 997.68 31.23 997.97 9.35"/><rect class="b" x="972.96" y="31.23" width="24.72" height="68.77"/><rect class="c" x="985.46" y="28.1" width="12.5" height="6.25"/><rect class="b" x="929.2" y="1.53" width="35.95" height="98.47"/><rect class="a" x="935.45" y="14.04" width="23.44" height="7.81"/><rect class="d" x="957.33" y="49.98" width="28.13" height="50.01"/><rect class="d" x="929.54" y="1.53" width="35.61" height="6.25"/><rect class="b" x="957.33" y="49.98" width="28.13" height="6.25"/><rect class="d" x="901.06" y="39.04" width="34.38" height="60.96"/><rect class="b" x="901.06" y="39.04" width="34.38" height="6.25"/><polygon class="e" points="936.93 100 933.87 100 933.87 40.58 902.55 40.58 902.55 100 899.48 100 899.48 37.51 936.93 37.51 936.93 100"/><polygon class="e" points="966.63 48.45 966.63 0 927.62 0 927.62 35.92 930.68 35.92 930.68 3.07 963.56 3.07 963.56 48.45 955.75 48.45 955.75 100 958.81 100 958.81 51.52 983.88 51.52 983.88 100 986.95 100 986.95 48.45 966.63 48.45"/><rect class="e" x="904.14" y="43.76" width="28.13" height="3.07"/><rect class="e" x="932.27" y="6.25" width="29.7" height="3.07"/><rect class="a" x="907.3" y="51.55" width="3.07" height="6.25"/><rect class="e" x="916.67" y="51.55" width="3.07" height="6.25"/><rect class="e" x="926.05" y="51.55" width="3.07" height="6.25"/><rect class="e" x="907.3" y="64.05" width="3.07" height="6.25"/><rect class="a" x="916.67" y="64.05" width="3.07" height="6.25"/><rect class="e" x="926.05" y="64.05" width="3.07" height="6.25"/><rect class="a" x="907.3" y="76.55" width="3.07" height="6.25"/><rect class="a" x="916.67" y="76.55" width="3.07" height="6.25"/><rect class="e" x="926.05" y="76.55" width="3.07" height="6.25"/><rect class="e" x="907.3" y="89.06" width="3.07" height="6.25"/><rect class="e" x="916.67" y="89.06" width="3.07" height="6.25"/><rect class="a" x="926.05" y="89.06" width="3.07" height="6.25"/><path class="e" d="M960.38,12.5V23.38H933.87V12.5Zm-23.45,7.82h20.38V15.57H936.93v4.75Z"/><rect class="e" x="933.87" y="26.54" width="3.07" height="6.25"/><rect class="a" x="941.68" y="26.54" width="3.07" height="6.25"/><rect class="e" x="949.5" y="26.54" width="3.07" height="6.25"/><rect class="e" x="957.31" y="26.54" width="3.07" height="6.25"/><rect class="e" x="941.68" y="37.48" width="3.07" height="6.25"/><rect class="a" x="949.5" y="37.48" width="3.07" height="6.25"/><rect class="e" x="941.68" y="48.42" width="3.07" height="6.25"/><rect class="e" x="949.5" y="48.42" width="3.07" height="6.25"/><rect class="a" x="941.68" y="59.36" width="3.07" height="6.25"/><rect class="e" x="949.5" y="59.36" width="3.07" height="6.25"/><rect class="e" x="941.68" y="70.3" width="3.07" height="6.25"/><rect class="a" x="949.5" y="70.3" width="3.07" height="6.25"/><rect class="a" x="941.68" y="81.24" width="3.07" height="6.25"/><rect class="e" x="949.5" y="81.24" width="3.07" height="6.25"/><rect class="a" x="941.68" y="92.18" width="3.07" height="6.25"/><rect class="e" x="949.5" y="92.18" width="3.07" height="6.25"/><rect class="a" x="957.31" y="37.48" width="3.07" height="6.25"/><rect class="e" x="960.41" y="54.7" width="21.88" height="3.07"/><rect class="a" x="963.56" y="60.93" width="3.07" height="39.07"/><rect class="a" x="969.82" y="60.93" width="3.07" height="39.07"/><rect class="a" x="976.07" y="60.93" width="3.07" height="39.07"/><path class="e" d="M999.5,100l0-93.87-7.82,6.36V10.92l-3.07,0,0,4.09-3.16,2.57V4.66h-3.06V20.05l-3.19,2.59V14h-3.06V25.13l-4.69,3.81V46.86h3.06V32.76h9.44v3.13H996.4l0,64.11ZM975.31,29.7l21.08-17.13v14H983.88V29.7ZM987,32.82V29.64h9.45v3.18Z"/><rect class="e" x="990.13" y="49.98" width="3.07" height="6.25"/><rect class="a" x="990.13" y="60.93" width="3.07" height="6.25"/><rect class="e" x="990.13" y="71.87" width="3.07" height="6.25"/><rect class="a" x="990.13" y="82.81" width="3.07" height="6.25"/><rect class="e" x="990.13" y="93.75" width="3.07" height="6.25"/><rect class="a" x="990.13" y="39.04" width="3.07" height="6.25"/><rect class="e" x="983.88" y="39.04" width="3.07" height="6.25"/><rect class="a" x="977.63" y="39.04" width="3.07" height="6.25"/><polygon class="f" points="851.72 28.07 851.72 32.81 851.69 32.81 851.69 50.09 861.16 50.09 861.16 48.46 854.89 48.46 854.89 28.14 890.9 28.14 890.9 48.46 884.63 48.46 884.63 50.09 894.04 50.09 894.04 100 894.04 100 894.04 25 851.72 25 851.72 26.54 851.72 28.07"/><rect class="f" x="864.24" y="48.46" width="17.32" height="1.63"/><polygon class="f" points="809.4 32.81 809.37 32.81 809.37 28.07 809.37 26.54 809.37 25 808.96 25 808.96 100 809.4 100 809.4 32.81"/><polygon class="b" points="851.69 29.7 851.69 32.81 851.72 32.81 851.72 28.07 809.37 28.07 809.37 32.81 809.4 32.81 809.4 29.7 851.69 29.7"/><path class="a" d="M887.83,31.21H858V45.39h29.87Zm-9.45,8.63h-4v3.95h-3.07V39.84h-4V36.76h4V32.81h3.07v3.95h4Z"/><path class="b" d="M851.69,53.17V100H858V90.87h26.6V100H891V53.17Zm9.41,33H858V79.86h3.07Zm0-11H858V68.88h3.07Zm0-11H858V57.9h3.07Zm7.84,22h-3.07V79.86h3.07Zm0-11h-3.07V68.88h3.07Zm0-11h-3.07V57.9h3.07Zm7.84,22h-3.07V79.86h3.07Zm0-11h-3.07V68.88h3.07Zm0-11h-3.07V57.9h3.07Zm7.85,22h-3.08V79.86h3.08Zm0-11h-3.08V68.88h3.08Zm-3.08-11V57.9h3.08v6.28Z"/><rect class="d" x="861.1" y="93.95" width="20.45" height="6.05"/><path class="d" d="M848.62,32.78H812.48V100h36.14Zm-28.3,64.34h-3.07V90.84h3.07Zm0-11h-3.07V79.86h3.07Zm0-11h-3.07V68.88h3.07Zm0-11h-3.07V57.9h3.07Zm0-11h-3.07V46.93h3.07Zm0-11h-3.07V36h3.07Zm7.84,54.9h-3.07V90.84h3.07Zm0-11h-3.07V79.86h3.07Zm0-11h-3.07V68.88h3.07Zm0-11h-3.07V57.9h3.07Zm0-11h-3.07V46.93h3.07Zm0-11h-3.07V36h3.07ZM836,97.12h-3.07V90.84H836Zm0-11h-3.07V79.86H836Zm0-11h-3.07V68.88H836Zm0-11h-3.07V57.9H836Zm0-11h-3.07V46.93H836Zm0-11h-3.07V36H836Zm7.85,54.9h-3.08V90.84h3.08Zm0-11h-3.08V79.86h3.08Zm0-11h-3.08V68.88h3.08Zm0-11h-3.08V57.9h3.08Zm0-11h-3.08V46.93h3.08Zm0-11h-3.08V36h3.08Z"/><polygon class="g" points="874.43 32.81 871.36 32.81 871.36 36.76 867.4 36.76 867.4 39.84 871.36 39.84 871.36 43.79 874.43 43.79 874.43 39.84 878.38 39.84 878.38 36.76 874.43 36.76 874.43 32.81"/><path class="e" d="M884.63,50.1V48.46h6.27V28.14h-36V48.46h6.27V50.1h-9.47V29.71H809.41V100h3.07V32.78h36.14V100h3.07V53.17H891V100H894V50.1ZM858,31.21h29.87V45.39H858Zm6.28,17.25h17.31V50.1H864.24Z"/><polygon class="e" points="858.03 90.88 858.03 100 861.1 100 861.1 93.95 881.55 93.95 881.55 100 884.63 100 884.63 90.88 858.03 90.88"/><rect class="a" x="858.03" y="57.9" width="3.07" height="6.27"/><rect class="e" x="865.87" y="57.9" width="3.07" height="6.27"/><rect class="e" x="873.71" y="57.9" width="3.07" height="6.27"/><rect class="a" x="881.55" y="57.9" width="3.07" height="6.27"/><rect class="e" x="858.03" y="68.88" width="3.07" height="6.27"/><rect class="a" x="865.87" y="68.88" width="3.07" height="6.27"/><rect class="e" x="873.71" y="68.88" width="3.07" height="6.27"/><rect class="e" x="881.55" y="68.88" width="3.07" height="6.27"/><rect class="e" x="858.03" y="79.86" width="3.07" height="6.27"/><rect class="e" x="865.87" y="79.86" width="3.07" height="6.27"/><rect class="a" x="873.71" y="79.86" width="3.07" height="6.27"/><rect class="e" x="881.55" y="79.86" width="3.07" height="6.27"/><rect class="e" x="817.25" y="35.95" width="3.07" height="6.27"/><rect class="a" x="825.09" y="35.95" width="3.07" height="6.27"/><rect class="e" x="832.93" y="35.95" width="3.07" height="6.27"/><rect class="e" x="840.77" y="35.95" width="3.07" height="6.27"/><rect class="a" x="817.25" y="46.93" width="3.07" height="6.27"/><rect class="e" x="825.09" y="46.93" width="3.07" height="6.27"/><rect class="a" x="832.93" y="46.93" width="3.07" height="6.27"/><rect class="e" x="840.77" y="46.93" width="3.07" height="6.27"/><rect class="e" x="817.25" y="57.9" width="3.07" height="6.27"/><rect class="e" x="825.09" y="57.9" width="3.07" height="6.27"/><rect class="e" x="832.93" y="57.9" width="3.07" height="6.27"/><rect class="a" x="840.77" y="57.9" width="3.07" height="6.27"/><rect class="e" x="817.25" y="68.88" width="3.07" height="6.27"/><rect class="a" x="825.09" y="68.88" width="3.07" height="6.27"/><rect class="a" x="832.93" y="68.88" width="3.07" height="6.27"/><rect class="e" x="840.77" y="68.88" width="3.07" height="6.27"/><rect class="e" x="817.25" y="79.86" width="3.07" height="6.27"/><rect class="a" x="825.09" y="79.86" width="3.07" height="6.27"/><rect class="e" x="832.93" y="79.86" width="3.07" height="6.27"/><rect class="e" x="840.77" y="79.86" width="3.07" height="6.27"/><rect class="a" x="817.25" y="90.84" width="3.07" height="6.27"/><rect class="e" x="825.09" y="90.84" width="3.07" height="6.27"/><rect class="a" x="832.93" y="90.84" width="3.07" height="6.27"/><rect class="e" x="840.77" y="90.84" width="3.07" height="6.27"/><polygon class="e" points="809.37 28.07 851.72 28.07 851.72 26.54 851.72 25 809.37 25 809.37 26.54 809.37 28.07"/><path class="f" d="M761.2,0V1.6A11,11,0,0,1,760.28,6a42.54,42.54,0,0,1,13.82,6.13h16.4v1.6a11.14,11.14,0,0,1-5.19,9.42,42.87,42.87,0,0,1,7.3,18.29h10v1.6a11.17,11.17,0,0,1-10,11.1,43,43,0,0,1-6.15,16.6h4v1.6a11.15,11.15,0,0,1-15.27,10.38,43.66,43.66,0,0,1-6.45,3.86l6,13.41h28.06V0Z"/><path class="f" d="M779.34,24.9a10.9,10.9,0,0,1-3.54-.58l-18,18a9.58,9.58,0,0,1,1.64,3.94h21.31a11.17,11.17,0,0,1-.46-3.18v-1.6h9a39.69,39.69,0,0,0-7-17A10.9,10.9,0,0,1,779.34,24.9Z"/><path class="f" d="M751.63,57.26V82.89h9.57v1.6a11.11,11.11,0,0,1-.13,1.64c1.18-.34,2.34-.73,3.47-1.18L752.08,57.17Z"/><path class="f" d="M768.18,72.35v-1.6h2.52L755.57,55.63l-.52.34,12.42,27.7a39.28,39.28,0,0,0,4.74-2.73A11.16,11.16,0,0,1,768.18,72.35Z"/><path class="f" d="M782.33,49.43H759.47a9.64,9.64,0,0,1-1.64,3.94l17.39,17.38h7.4A39.66,39.66,0,0,0,789.4,54,11.17,11.17,0,0,1,782.33,49.43Z"/><path class="f" d="M748.43,57.26a3.58,3.58,0,0,1-.45-.09L735.53,85c1.13.44,2.28.83,3.46,1.17a11.11,11.11,0,0,1-.12-1.64v-1.6h9.56Z"/><path class="f" d="M760,89.72l0-.09a11.16,11.16,0,0,1-19.82,0l0,.09a42.22,42.22,0,0,1-5.88-1.84L728.78,100h42.5l-5.43-12.12A42.36,42.36,0,0,1,760,89.72Z"/><path class="f" d="M750,46.24a1.59,1.59,0,1,0,1.59,1.59A1.59,1.59,0,0,0,750,46.24Z"/><path class="f" d="M744.5,55.63,729.37,70.76h2.52v1.59a11.14,11.14,0,0,1-4,8.59,39.4,39.4,0,0,0,4.75,2.73L745,56C744.84,55.86,744.66,55.75,744.5,55.63Z"/><path class="f" d="M724.84,70.75l17.39-17.38a9.62,9.62,0,0,1-1.63-3.94H717.74A11.19,11.19,0,0,1,710.66,54a39.79,39.79,0,0,0,6.78,16.74Z"/><path class="f" d="M719.75,43.05a11.17,11.17,0,0,1-.47,3.18H740.6a9.44,9.44,0,0,1,1.63-3.94l-18-18a11.13,11.13,0,0,1-6.54.17,39.67,39.67,0,0,0-7,17h9Z"/><path class="f" d="M727.25,22.79,744.5,40a9.39,9.39,0,0,1,3.93-1.63V12.65a11.22,11.22,0,0,1-6.85-3.77,39.44,39.44,0,0,0-9.69,3.46v1.4A11.15,11.15,0,0,1,727.25,22.79Z"/><path class="f" d="M751.63,12.65V38.4A9.44,9.44,0,0,1,755.57,40l17.24-17.24a11.17,11.17,0,0,1-4.63-9v-1.4a39.22,39.22,0,0,0-9.7-3.46A11.19,11.19,0,0,1,751.63,12.65Z"/><path class="f" d="M724.83,82.73a11,11,0,0,1-4.11.79,11.18,11.18,0,0,1-11.16-11.17v-1.6h4a42.84,42.84,0,0,1-6.15-16.6,11.17,11.17,0,0,1-10-11.1v-1.6h10a42.85,42.85,0,0,1,7.29-18.29,11.14,11.14,0,0,1-5.19-9.42v-1.6H726l.89-.59A42.68,42.68,0,0,1,739.78,6a11,11,0,0,1-.91-4.41V0H697.15V100h28.13l6-13.41A43.75,43.75,0,0,1,724.83,82.73Z"/><path class="c" d="M783.67,44.64a8,8,0,0,0,15.61,0Z"/><path class="c" d="M771.53,74a8,8,0,0,0,15.61,0Z"/><path class="c" d="M742.23,86.09a8,8,0,0,0,15.61,0Z"/><path class="c" d="M728.53,74H712.92a8,8,0,0,0,15.61,0Z"/><path class="c" d="M708.59,51a8,8,0,0,0,7.8-6.37H700.78A8,8,0,0,0,708.59,51Z"/><path class="c" d="M720.72,21.7a8,8,0,0,0,7.81-6.36H712.92A8,8,0,0,0,720.72,21.7Z"/><path class="c" d="M750,9.57a8,8,0,0,0,7.81-6.37H742.23A8,8,0,0,0,750,9.57Z"/><path class="c" d="M779.34,21.7a8,8,0,0,0,7.8-6.36H771.53A8,8,0,0,0,779.34,21.7Z"/><path class="b" d="M750,41.46a6.37,6.37,0,1,0,6.37,6.37A6.38,6.38,0,0,0,750,41.46Zm0,11.16a4.79,4.79,0,1,1,4.79-4.79A4.79,4.79,0,0,1,750,52.62Z"/><path class="e" d="M775.23,82.73A11.15,11.15,0,0,0,790.5,72.35v-1.6h-4a43,43,0,0,0,6.15-16.6,11.17,11.17,0,0,0,10-11.1v-1.6h-10a42.87,42.87,0,0,0-7.3-18.29,11.14,11.14,0,0,0,5.19-9.42v-1.6H774.1A42.54,42.54,0,0,0,760.28,6a11,11,0,0,0,.92-4.41V0H738.87V1.6A11,11,0,0,0,739.78,6a42.68,42.68,0,0,0-12.93,5.54l-.89.59h-16.4v1.6a11.14,11.14,0,0,0,5.19,9.42,42.85,42.85,0,0,0-7.29,18.29h-10v1.6a11.17,11.17,0,0,0,10,11.1,42.84,42.84,0,0,0,6.15,16.6h-4v1.6a11.18,11.18,0,0,0,11.16,11.17,11,11,0,0,0,4.11-.79,43.75,43.75,0,0,0,6.46,3.86l-6,13.41h3.5l5.44-12.12a42.22,42.22,0,0,0,5.88,1.84l0-.09a11.16,11.16,0,0,0,19.82,0l0,.09a42.36,42.36,0,0,0,5.89-1.84L771.28,100h3.51l-6-13.41A43.66,43.66,0,0,0,775.23,82.73Zm4.11-2.41A8,8,0,0,1,771.53,74h15.61A8,8,0,0,1,779.34,80.32Zm3.28-9.57h-7.4L757.83,53.37a9.64,9.64,0,0,0,1.64-3.94h22.86A11.17,11.17,0,0,0,789.4,54,39.66,39.66,0,0,1,782.62,70.75ZM750,92.46a8,8,0,0,1-7.8-6.37h15.61A8,8,0,0,1,750,92.46ZM757.84,3.2a8,8,0,0,1-15.61,0ZM756.4,47.83A6.37,6.37,0,1,1,750,41.46,6.37,6.37,0,0,1,756.4,47.83ZM791.48,51a8,8,0,0,1-7.81-6.37h15.61A8,8,0,0,1,791.48,51Zm-2.11-9.56h-9v1.6a11.17,11.17,0,0,0,.46,3.18H759.47a9.58,9.58,0,0,0-1.64-3.94l18-18a11.1,11.1,0,0,0,6.53.17A39.69,39.69,0,0,1,789.37,41.45Zm-2.23-26.11a8,8,0,0,1-15.61,0Zm-19-3v1.4a11.17,11.17,0,0,0,4.63,9L755.57,40a9.44,9.44,0,0,0-3.94-1.63V12.65a11.19,11.19,0,0,0,6.85-3.77A39.22,39.22,0,0,1,768.18,12.34Zm-36.29,0a39.44,39.44,0,0,1,9.69-3.46,11.22,11.22,0,0,0,6.85,3.77V38.4A9.39,9.39,0,0,0,744.5,40L727.25,22.79a11.15,11.15,0,0,0,4.64-9Zm-3.36,3a8,8,0,0,1-15.61,0Zm-10.8,9.15a11.13,11.13,0,0,0,6.54-.17l18,18a9.44,9.44,0,0,0-1.63,3.94H719.28a11.17,11.17,0,0,0,.47-3.18v-1.6h-9A39.67,39.67,0,0,1,717.73,24.49Zm-1.34,20.15a8,8,0,0,1-15.61,0ZM710.66,54a11.19,11.19,0,0,0,7.08-4.58H740.6a9.62,9.62,0,0,0,1.63,3.94L724.84,70.75h-7.4A39.79,39.79,0,0,1,710.66,54ZM712.92,74h15.61a8,8,0,0,1-15.61,0Zm19.68,9.72a39.4,39.4,0,0,1-4.75-2.73,11.14,11.14,0,0,0,4-8.59V70.76h-2.52L744.5,55.63c.16.12.34.23.51.34Zm6.27-.78v1.6a11.11,11.11,0,0,0,.12,1.64c-1.18-.34-2.33-.73-3.46-1.17L748,57.17a3.58,3.58,0,0,0,.45.09V82.89Zm22.2,3.24a11.11,11.11,0,0,0,.13-1.64v-1.6h-9.57V57.26l.45-.09L764.54,85C763.41,85.4,762.25,85.79,761.07,86.13Zm-6-30.16.52-.34L770.7,70.75h-2.52v1.6a11.16,11.16,0,0,0,4,8.59,39.28,39.28,0,0,1-4.74,2.73Z"/><path class="e" d="M750,43a4.79,4.79,0,1,0,4.79,4.79A4.79,4.79,0,0,0,750,43Zm0,6.38a1.59,1.59,0,1,1,1.59-1.59A1.6,1.6,0,0,1,750,49.42Z"/><rect class="d" x="617.64" y="9.34" width="43.77" height="6.25"/><path class="b" d="M631.71,9.34a7.82,7.82,0,1,1,15.63,0"/><rect class="b" x="619.2" y="14.03" width="40.64" height="6.25"/><rect class="d" x="619.2" y="20.28" width="40.17" height="79.72"/><rect class="d" x="591.06" y="33.13" width="28.14" height="5.91"/><rect class="d" x="659.84" y="33.13" width="28.14" height="5.91"/><rect class="b" x="591.06" y="39.04" width="28.14" height="60.96"/><rect class="b" x="659.84" y="39.04" width="28.14" height="60.96"/><rect class="e" x="594.19" y="37.52" width="21.88" height="3.04"/><rect class="e" x="622.33" y="18.76" width="34.39" height="3.04"/><rect class="e" x="595.79" y="45.29" width="3.04" height="6.25"/><rect class="a" x="603.61" y="45.29" width="3.04" height="6.25"/><rect class="e" x="611.43" y="45.29" width="3.04" height="6.25"/><rect class="a" x="623.93" y="24.97" width="3.04" height="6.25"/><rect class="e" x="633.31" y="24.97" width="3.04" height="6.25"/><rect class="e" x="642.69" y="24.97" width="3.04" height="6.25"/><rect class="e" x="652.07" y="24.97" width="3.04" height="6.25"/><rect class="e" x="623.93" y="35.91" width="3.04" height="6.25"/><rect class="a" x="633.31" y="35.91" width="3.04" height="6.25"/><rect class="e" x="642.69" y="35.91" width="3.04" height="6.25"/><rect class="e" x="652.07" y="35.91" width="3.04" height="6.25"/><rect class="e" x="623.93" y="46.85" width="3.04" height="6.25"/><rect class="e" x="633.31" y="46.85" width="3.04" height="6.25"/><rect class="a" x="642.69" y="46.85" width="3.04" height="6.25"/><rect class="a" x="652.07" y="46.85" width="3.04" height="6.25"/><rect class="e" x="623.93" y="57.79" width="3.04" height="6.25"/><rect class="a" x="633.31" y="57.79" width="3.04" height="6.25"/><rect class="e" x="642.69" y="57.79" width="3.04" height="6.25"/><rect class="e" x="652.07" y="57.79" width="3.04" height="6.25"/><rect class="e" x="623.93" y="68.74" width="3.04" height="6.25"/><rect class="e" x="633.31" y="68.74" width="3.04" height="6.25"/><rect class="a" x="642.69" y="68.74" width="3.04" height="6.25"/><rect class="e" x="652.07" y="68.74" width="3.04" height="6.25"/><rect class="e" x="623.93" y="79.68" width="3.04" height="6.25"/><rect class="a" x="633.31" y="79.68" width="3.04" height="6.25"/><rect class="e" x="642.69" y="79.68" width="3.04" height="6.25"/><rect class="e" x="652.07" y="79.68" width="3.04" height="6.25"/><rect class="a" x="623.93" y="90.62" width="3.04" height="6.25"/><rect class="e" x="633.31" y="90.62" width="3.04" height="6.25"/><rect class="e" x="642.69" y="90.62" width="3.04" height="6.25"/><rect class="a" x="652.07" y="90.62" width="3.04" height="6.25"/><rect class="a" x="595.79" y="56.23" width="3.04" height="6.25"/><rect class="e" x="603.61" y="56.23" width="3.04" height="6.25"/><rect class="e" x="611.43" y="56.23" width="3.04" height="6.25"/><rect class="e" x="595.79" y="67.17" width="3.04" height="6.25"/><rect class="a" x="603.61" y="67.17" width="3.04" height="6.25"/><rect class="e" x="611.43" y="67.17" width="3.04" height="6.25"/><rect class="e" x="595.79" y="78.12" width="3.04" height="6.25"/><rect class="a" x="603.61" y="78.12" width="3.04" height="6.25"/><rect class="e" x="611.43" y="78.12" width="3.04" height="6.25"/><rect class="e" x="595.79" y="89.06" width="3.04" height="6.25"/><rect class="e" x="603.61" y="89.06" width="3.04" height="6.25"/><rect class="a" x="611.43" y="89.06" width="3.04" height="6.25"/><rect class="e" x="662.97" y="37.52" width="21.88" height="3.04"/><rect class="e" x="680.2" y="45.29" width="3.04" height="6.25"/><rect class="e" x="672.39" y="45.29" width="3.04" height="6.25"/><rect class="e" x="664.57" y="45.29" width="3.04" height="6.25"/><rect class="e" x="680.2" y="56.23" width="3.04" height="6.25"/><rect class="e" x="672.39" y="56.23" width="3.04" height="6.25"/><rect class="a" x="664.57" y="56.23" width="3.04" height="6.25"/><rect class="e" x="680.2" y="67.17" width="3.04" height="6.25"/><rect class="a" x="672.39" y="67.17" width="3.04" height="6.25"/><rect class="e" x="664.57" y="67.17" width="3.04" height="6.25"/><rect class="a" x="680.2" y="78.12" width="3.04" height="6.25"/><rect class="e" x="672.39" y="78.12" width="3.04" height="6.25"/><rect class="e" x="664.57" y="78.12" width="3.04" height="6.25"/><rect class="e" x="680.2" y="89.06" width="3.04" height="6.25"/><rect class="a" x="672.39" y="89.06" width="3.04" height="6.25"/><rect class="e" x="664.57" y="89.06" width="3.04" height="6.25"/><path class="e" d="M648.73,7.82a9.33,9.33,0,0,0-18.42,0H617.64v3h43.77v-3ZM639.52,3a6.31,6.31,0,0,1,6.11,4.78H633.41A6.32,6.32,0,0,1,639.52,3Z"/><rect class="e" x="667.7" y="18.72" width="3.04" height="3.13"/><polygon class="e" points="670.74 31.26 670.74 23.41 667.7 23.41 667.7 31.26 661.36 31.26 661.36 12.51 617.68 12.51 617.68 31.26 611.34 31.26 611.34 23.41 608.3 23.41 608.3 31.26 589.54 31.26 589.54 100 592.58 100 592.58 34.31 617.68 34.31 617.68 100 620.72 100 620.72 15.55 658.32 15.55 658.32 100 661.36 100 661.36 34.31 686.46 34.31 686.46 100 689.5 100 689.5 31.26 670.74 31.26"/><rect class="e" x="608.3" y="18.72" width="3.04" height="3.13"/><rect class="c" x="513.52" y="55.53" width="5.56" height="8.34"/><rect class="c" x="542.7" y="55.53" width="5.56" height="8.34"/><rect class="c" x="571.89" y="55.53" width="5.56" height="8.34"/><path class="b" d="M501,81.93v6.95h6.36l4.76,8.34h9.41a9.75,9.75,0,0,1,18.7,0h10.49a9.75,9.75,0,0,1,18.69,0h9.41l4.77-8.34H590V81.93Z"/><rect class="d" x="501.01" y="77.77" width="88.94" height="4.17"/><path class="e" d="M514.19,100a12.5,12.5,0,0,0-12.45-12.48l-.67,0L501,90.22l.69,0h.06a9.76,9.76,0,0,1,9.75,9.76"/><path class="e" d="M530.89,90.24a9.77,9.77,0,0,1,9.76,9.76h2.72a12.48,12.48,0,0,0-25,0h2.72A9.77,9.77,0,0,1,530.89,90.24Z"/><path class="e" d="M560.07,90.24a9.77,9.77,0,0,1,9.76,9.76h2.72a12.48,12.48,0,1,0-24.95,0h2.72A9.76,9.76,0,0,1,560.07,90.24Z"/><path class="e" d="M579.5,100a9.77,9.77,0,0,1,9.71-9.76l.65.05.18-2.72-.7,0h-.08A12.5,12.5,0,0,0,576.78,100"/><rect class="e" x="501.01" y="76.4" width="9.73" height="2.72"/><rect class="e" x="580.22" y="76.4" width="9.73" height="2.72"/><rect class="e" x="501.01" y="80.61" width="88.94" height="2.72"/><rect class="e" x="512.13" y="50" width="8.34" height="2.72"/><rect class="e" x="541.31" y="50" width="8.34" height="2.72"/><path class="e" d="M517.66,65.23h2.78V54.17h-8.28V65.23h2.78V76.4h-2.81v2.73h8.34V76.4h-2.81Zm-2.78-8.34h2.84v5.62h-2.84Z"/><path class="e" d="M546.84,65.23h2.78V54.17h-8.28V65.23h2.78V76.4h-2.81v2.73h8.34V76.4h-2.81V65.23Zm-2.78-8.34h2.84v5.62h-2.84Z"/><path class="e" d="M576,76.4V65.23h2.78V54.17h-8.28V65.23h2.77V76.4h-2.8v2.73h8.33V76.4Zm-2.78-19.51h2.83v5.62h-2.83Z"/><rect class="e" x="570.5" y="50" width="8.34" height="2.72"/><rect class="e" x="521.86" y="76.4" width="18.07" height="2.72"/><rect class="e" x="551.04" y="76.4" width="18.07" height="2.72"/><polygon class="f" points="466.18 9.7 466.18 24.17 464.6 24.17 464.6 25.81 469.4 25.81 469.4 99.93 475.9 99.93 475.9 25.81 501.62 25.81 501.62 99.93 508.05 99.93 508.05 0 458.12 0 458.12 9.7 466.18 9.7"/><polygon class="f" points="404.98 99.93 411.45 99.93 411.45 25.81 437.17 25.81 437.17 99.93 443.68 99.93 443.68 25.81 448.48 25.81 448.48 24.17 446.9 24.17 446.9 9.7 454.96 9.7 454.96 0 404.95 0 404.95 100 404.98 100 404.98 99.93"/><path class="b" d="M464.6,24.17H463V12.86H450.06V24.17h-1.58v1.64H464.6Zm-9.7-1.61h-3.16V16.11h3.16Zm6.44,0h-3.16V16.11h3.16Z"/><path class="b" d="M446.84,99.93h19.4V29h-19.4ZM461.4,33.84h3.16v4.83H461.4Zm0,8h3.16v4.84H461.4Zm0,8.06h3.16v4.83H461.4Zm0,8.06h3.16v4.83H461.4Zm0,8.05h3.16V70.9H461.4Zm0,8.06h3.16V79H461.4Zm0,8.06h3.16V87H461.4Zm0,8h3.16v4.84H461.4ZM455,33.84h3.16v4.83H455Zm0,8h3.16v4.84H455ZM455,50h3.16v4.83H455ZM455,58h3.16v4.83H455Zm0,8.05h3.16V70.9H455Zm0,8.06h3.16V79H455Zm0,8.06h3.16V87H455Zm0,8h3.16v4.84H455Zm-6.45-56.39h3.16v4.83h-3.16Zm0,8h3.16v4.84h-3.16Zm0,8.06h3.16v4.83h-3.16Zm0,8.06h3.16v4.83h-3.16Zm0,8.05h3.16V70.9h-3.16Zm0,8.06h3.16V79h-3.16Zm0,8.06h3.16V87h-3.16Zm0,8h3.16v4.84h-3.16Z"/><path class="d" d="M414.61,99.93H434V29h-19.4Zm11.31-66.06h4.84V37h-4.84Zm0,6.44h4.84v3.17h-4.84Zm0,6.45h4.84v3.16h-4.84Zm0,6.44h4.84v3.17h-4.84Zm0,6.45h4.84v3.16h-4.84Zm0,6.44h4.84v3.16h-4.84Zm0,6.45h4.84V75.7h-4.84Zm0,6.44h4.84v3.16h-4.84Zm0,6.45h4.84v3.16h-4.84Zm0,6.45h4.84V95h-4.84Zm-8.05-58h4.83V37h-4.83Zm0,6.44h4.83v3.17h-4.83Zm0,6.45h4.83v3.16h-4.83Zm0,6.44h4.83v3.17h-4.83Zm0,6.45h4.83v3.16h-4.83Zm0,6.44h4.83v3.16h-4.83Zm0,6.45h4.83V75.7h-4.83Zm0,6.44h4.83v3.16h-4.83Zm0,6.45h4.83v3.16h-4.83Zm0,6.45h4.83V95h-4.83Z"/><path class="d" d="M479.07,99.93h19.39V29H479.07Zm11.3-66.06h4.84V37h-4.84Zm0,6.44h4.84v3.17h-4.84Zm0,6.45h4.84v3.16h-4.84Zm0,6.44h4.84v3.17h-4.84Zm0,6.45h4.84v3.16h-4.84Zm0,6.44h4.84v3.16h-4.84Zm0,6.45h4.84V75.7h-4.84Zm0,6.44h4.84v3.16h-4.84Zm0,6.45h4.84v3.16h-4.84Zm0,6.45h4.84V95h-4.84Zm-8.05-58h4.83V37h-4.83Zm0,6.44h4.83v3.17h-4.83Zm0,6.45h4.83v3.16h-4.83Zm0,6.44h4.83v3.17h-4.83Zm0,6.45h4.83v3.16h-4.83Zm0,6.44h4.83v3.16h-4.83Zm0,6.45h4.83V75.7h-4.83Zm0,6.44h4.83v3.16h-4.83Zm0,6.45h4.83v3.16h-4.83Zm0,6.45h4.83V95h-4.83Z"/><path class="e" d="M501.62,25.81H475.9V99.93h-6.5V25.81H443.68V99.93h-6.51V25.81H411.45V99.93H405V100H508.05v-.07h-6.43ZM434,99.93h-19.4V29H434Zm32.23,0h-19.4V29h19.4Zm32.22,0H479.07V29h19.39Z"/><polygon class="e" points="446.9 9.7 446.9 24.17 448.48 24.17 450.06 24.17 450.06 12.86 463.01 12.86 463.01 24.17 464.6 24.17 466.18 24.17 466.18 9.7 458.12 9.7 458.12 0 454.96 0 454.96 9.7 446.9 9.7"/><rect class="a" x="451.74" y="16.11" width="3.16" height="6.44"/><rect class="e" x="448.51" y="33.84" width="3.16" height="4.83"/><rect class="a" x="454.96" y="33.84" width="3.16" height="4.83"/><rect class="e" x="461.4" y="33.84" width="3.16" height="4.83"/><rect class="a" x="448.51" y="41.89" width="3.16" height="4.83"/><rect class="e" x="454.96" y="41.89" width="3.16" height="4.83"/><rect class="e" x="461.4" y="41.89" width="3.16" height="4.83"/><rect class="e" x="448.51" y="49.95" width="3.16" height="4.83"/><rect class="e" x="454.96" y="49.95" width="3.16" height="4.83"/><rect class="a" x="461.4" y="49.95" width="3.16" height="4.83"/><rect class="e" x="448.51" y="58.01" width="3.16" height="4.83"/><rect class="a" x="454.96" y="58.01" width="3.16" height="4.83"/><rect class="a" x="461.4" y="58.01" width="3.16" height="4.83"/><rect class="a" x="448.51" y="66.06" width="3.16" height="4.83"/><rect class="e" x="454.96" y="66.06" width="3.16" height="4.83"/><rect class="e" x="461.4" y="66.06" width="3.16" height="4.83"/><rect class="e" x="448.51" y="74.12" width="3.16" height="4.83"/><rect class="e" x="454.96" y="74.12" width="3.16" height="4.83"/><rect class="e" x="461.4" y="74.12" width="3.16" height="4.83"/><rect class="a" x="448.51" y="82.18" width="3.16" height="4.83"/><rect class="a" x="454.96" y="82.18" width="3.16" height="4.83"/><rect class="e" x="461.4" y="82.18" width="3.16" height="4.83"/><rect class="e" x="448.51" y="90.23" width="3.16" height="4.83"/><rect class="e" x="454.96" y="90.23" width="3.16" height="4.83"/><rect class="e" x="461.4" y="90.23" width="3.16" height="4.83"/><rect class="e" x="458.18" y="16.11" width="3.16" height="6.44"/><rect class="e" x="417.87" y="33.87" width="4.83" height="3.16"/><rect class="a" x="425.92" y="33.87" width="4.83" height="3.16"/><rect class="a" x="417.87" y="40.31" width="4.83" height="3.16"/><rect class="e" x="425.92" y="40.31" width="4.83" height="3.16"/><rect class="e" x="417.87" y="46.76" width="4.83" height="3.16"/><rect class="a" x="425.92" y="46.76" width="4.83" height="3.16"/><rect class="e" x="417.87" y="53.2" width="4.83" height="3.16"/><rect class="a" x="425.92" y="53.2" width="4.83" height="3.16"/><rect class="e" x="417.87" y="59.65" width="4.83" height="3.16"/><rect class="e" x="425.92" y="59.65" width="4.83" height="3.16"/><rect class="a" x="417.87" y="66.09" width="4.83" height="3.16"/><rect class="e" x="425.92" y="66.09" width="4.83" height="3.16"/><rect class="e" x="417.87" y="72.54" width="4.83" height="3.16"/><rect class="a" x="425.92" y="72.54" width="4.83" height="3.16"/><rect class="a" x="417.87" y="78.98" width="4.83" height="3.16"/><rect class="e" x="425.92" y="78.98" width="4.83" height="3.16"/><rect class="a" x="417.87" y="85.43" width="4.83" height="3.16"/><rect class="a" x="425.92" y="85.43" width="4.83" height="3.16"/><rect class="e" x="417.87" y="91.88" width="4.83" height="3.16"/><rect class="e" x="425.92" y="91.88" width="4.83" height="3.16"/><rect class="a" x="482.32" y="33.87" width="4.83" height="3.16"/><rect class="e" x="490.37" y="33.87" width="4.83" height="3.16"/><rect class="e" x="482.32" y="40.31" width="4.83" height="3.16"/><rect class="a" x="490.37" y="40.31" width="4.83" height="3.16"/><rect class="a" x="482.32" y="46.76" width="4.83" height="3.16"/><rect class="e" x="490.37" y="46.76" width="4.83" height="3.16"/><rect class="a" x="482.32" y="53.2" width="4.83" height="3.16"/><rect class="e" x="490.37" y="53.2" width="4.83" height="3.16"/><rect class="a" x="482.32" y="59.65" width="4.83" height="3.16"/><rect class="e" x="490.37" y="59.65" width="4.83" height="3.16"/><rect class="e" x="482.32" y="66.09" width="4.83" height="3.16"/><rect class="e" x="490.37" y="66.09" width="4.83" height="3.16"/><rect class="e" x="482.32" y="72.54" width="4.83" height="3.16"/><rect class="a" x="490.37" y="72.54" width="4.83" height="3.16"/><rect class="e" x="482.32" y="78.98" width="4.83" height="3.16"/><rect class="e" x="490.37" y="78.98" width="4.83" height="3.16"/><rect class="e" x="482.32" y="85.43" width="4.83" height="3.16"/><rect class="a" x="490.37" y="85.43" width="4.83" height="3.16"/><rect class="a" x="482.32" y="91.88" width="4.83" height="3.16"/><rect class="e" x="490.37" y="91.88" width="4.83" height="3.16"/><rect class="d" x="309.71" y="73.86" width="61.96" height="3.87"/><rect class="b" x="334.88" y="77.73" width="11.62" height="3.87"/><rect class="c" x="310.68" y="44.82" width="60.02" height="30.01"/><rect class="a" x="318.9" y="50.65" width="5.81" height="1.9"/><rect class="a" x="339.23" y="50.65" width="5.81" height="1.9"/><rect class="a" x="359.56" y="50.65" width="5.81" height="1.9"/><path class="e" d="M371.64,43.87h-8.23V40h-7.7v3.87H343.09V40h-7.71v3.87H322.76V40h-7.71v3.87h-5.32V75.78h61.91Zm-14-2h3.91v2h-3.91Zm-20.33,0h3.91v2h-3.91v-2ZM317,41.9h3.91v2H317Zm52.8,32H311.62V45.77h9.24v2h-1v1.9h3.87v-1.9h-1v-2h18.43v2h-1v1.9h3.87v-1.9h-1v-2h18.43v2h-1v1.9h3.87v-1.9h-1v-2h6.34V73.88Z"/><path class="e" d="M371.66,76.87h-62v1.9h24.22v3.79h13.51V78.77h24.22v-1.9Zm-26.11,3.79h-9.72V78.77h9.72v1.89Z"/><polygon class="e" points="337.78 85.46 339.74 85.46 339.74 100 341.63 100 341.63 85.46 343.59 85.46 343.59 83.56 337.78 83.56 337.78 85.46"/><rect class="a" x="314.55" y="61.3" width="19.36" height="1.9"/><rect class="a" x="314.55" y="65.17" width="9.68" height="1.9"/><rect class="a" x="314.55" y="69.04" width="6.78" height="1.9"/><path class="f" d="M394.1,60h-7.55v7.55A7.56,7.56,0,0,1,394.1,60Z"/><path class="f" d="M393,100V92.33a7.56,7.56,0,0,1-6.48-7.48V100Z"/><path class="f" d="M401.65,67.55V60H394.1A7.56,7.56,0,0,1,401.65,67.55Z"/><path class="f" d="M395.17,92.33V100h6.48V84.85A7.56,7.56,0,0,1,395.17,92.33Z"/><path class="h" d="M393,90.16V81L390.1,78l1.51-1.51L393,78V74h2.14V81.2l1.42-1.43,1.51,1.51-2.93,2.93v6a5.42,5.42,0,0,0,4.35-5.31V67.55a5.42,5.42,0,1,0-10.84,0v17.3A5.42,5.42,0,0,0,393,90.16Z"/><path class="e" d="M393,92.33V100h2.14V92.33a7.56,7.56,0,0,0,6.48-7.48V67.55a7.55,7.55,0,1,0-15.1,0v17.3A7.56,7.56,0,0,0,393,92.33Zm-4.35-24.78a5.42,5.42,0,1,1,10.84,0v17.3a5.42,5.42,0,0,1-4.35,5.31v-6l2.93-2.93-1.51-1.51-1.42,1.43V74H393V78l-1.42-1.42L390.1,78,393,81v9.19a5.42,5.42,0,0,1-4.35-5.31Z"/><path class="f" d="M376.5,60H369v7.55A7.56,7.56,0,0,1,376.5,60Z"/><path class="f" d="M375.43,100V92.33A7.56,7.56,0,0,1,369,84.85V100Z"/><path class="f" d="M384.05,67.55V60H376.5A7.56,7.56,0,0,1,384.05,67.55Z"/><path class="f" d="M377.57,92.33V100h6.48V84.85A7.56,7.56,0,0,1,377.57,92.33Z"/><path class="h" d="M375.43,90.16V81L372.5,78,374,76.53,375.43,78V74h2.14V81.2L379,79.77l1.51,1.51-2.93,2.93v6a5.42,5.42,0,0,0,4.35-5.31V67.55a5.42,5.42,0,0,0-10.84,0v17.3A5.42,5.42,0,0,0,375.43,90.16Z"/><path class="e" d="M375.43,92.33V100h2.14V92.33a7.56,7.56,0,0,0,6.48-7.48V67.55a7.55,7.55,0,1,0-15.1,0v17.3A7.56,7.56,0,0,0,375.43,92.33Zm-4.35-24.78a5.42,5.42,0,0,1,10.84,0v17.3a5.42,5.42,0,0,1-4.35,5.31v-6l2.93-2.93L379,79.77l-1.42,1.43V74h-2.14V78L374,76.53,372.5,78,375.43,81v9.19a5.42,5.42,0,0,1-4.35-5.31Z"/><path class="f" d="M358.9,60h-7.55v7.55A7.56,7.56,0,0,1,358.9,60Z"/><path class="f" d="M357.83,100V92.33a7.56,7.56,0,0,1-6.48-7.48V100Z"/><path class="f" d="M366.45,67.55V60H358.9A7.56,7.56,0,0,1,366.45,67.55Z"/><path class="f" d="M360,92.33V100h6.48V84.85A7.56,7.56,0,0,1,360,92.33Z"/><path class="h" d="M357.83,90.16V81L354.9,78l1.51-1.51L357.83,78V74H360V81.2l1.42-1.43,1.51,1.51L360,84.21v6a5.42,5.42,0,0,0,4.35-5.31V67.55a5.42,5.42,0,0,0-10.84,0v17.3A5.42,5.42,0,0,0,357.83,90.16Z"/><path class="e" d="M357.83,92.33V100H360V92.33a7.56,7.56,0,0,0,6.48-7.48V67.55a7.55,7.55,0,0,0-15.1,0v17.3A7.56,7.56,0,0,0,357.83,92.33Zm-4.35-24.78a5.42,5.42,0,0,1,10.84,0v17.3A5.42,5.42,0,0,1,360,90.16v-6l2.93-2.93-1.51-1.51L360,81.2V74h-2.14V78l-1.42-1.42L354.9,78,357.83,81v9.19a5.42,5.42,0,0,1-4.35-5.31Z"/><rect class="i" x="97.99" y="68.9" width="2.83" height="23.93"/><path class="c" d="M87.21,57.78H75.74v11.8a2.07,2.07,0,0,1-2.06,2.07H60.06v2.29h0V90.23a2.59,2.59,0,0,0,2.6,2.6h5.17a6.34,6.34,0,0,1,12.67,0H98V60.38a2.6,2.6,0,0,0-2.59-2.6H91.22"/><path class="j" d="M62.74,90.23V73.94h0V71.65H60.06v2.29h0V90.23a2.59,2.59,0,0,0,2.6,2.6h2.68A2.59,2.59,0,0,1,62.74,90.23Z"/><path class="j" d="M60.06,82.26v8a2.59,2.59,0,0,0,2.6,2.6h5.17a6.34,6.34,0,0,1,12.67,0H98V82.26Z"/><path class="j" d="M62.74,90.23v-8H60.06v8a2.59,2.59,0,0,0,2.6,2.6h2.68A2.59,2.59,0,0,1,62.74,90.23Z"/><path class="k" d="M75.74,69.58V53.15a2.07,2.07,0,0,0-2.06-2.07h-24a2.07,2.07,0,0,0-2.07,2.07V69.58a2.07,2.07,0,0,0,2.07,2.07h24A2.07,2.07,0,0,0,75.74,69.58Z"/><path class="l" d="M50.27,69.58V53.15a2.07,2.07,0,0,1,2.07-2.07H49.66a2.07,2.07,0,0,0-2.07,2.07V69.58a2.07,2.07,0,0,0,2.07,2.07h2.68A2.07,2.07,0,0,1,50.27,69.58Z"/><path class="l" d="M54.42,51.08H49.66a2.07,2.07,0,0,0-2.07,2.07V69.58L58,60.74Z"/><path class="m" d="M50.27,53.15a2.07,2.07,0,0,1,2.07-2.07H49.66a2.07,2.07,0,0,0-2.07,2.07V69.58l2.68-2.28V53.15Z"/><path class="l" d="M68.91,51.08h4.77a2.07,2.07,0,0,1,2.06,2.07V69.58L65.35,60.74Z"/><path class="b" d="M73.68,51.08h-24a2.07,2.07,0,0,0-2.07,2.07L61.67,63.43,75.74,53.15A2.07,2.07,0,0,0,73.68,51.08Z"/><path class="b" d="M50.27,53.15a2.07,2.07,0,0,1,2.07-2.07H49.66a2.07,2.07,0,0,0-2.07,2.07l2.68,2v-2Z"/><path class="n" d="M107.28,80.87h14.11l-9-10.71a3.46,3.46,0,0,0-2.44-1.26h-4.41V79.08A1.79,1.79,0,0,0,107.28,80.87Z"/><path class="o" d="M108.17,79.08V68.9h-2.68V79.08a1.79,1.79,0,0,0,1.79,1.79H110A1.79,1.79,0,0,1,108.17,79.08Z"/><path class="d" d="M74.16,86.35a6.34,6.34,0,1,0,6.34,6.34A6.33,6.33,0,0,0,74.16,86.35Zm0,8.23a1.9,1.9,0,1,1,1.9-1.89A1.89,1.89,0,0,1,74.16,94.58Z"/><path class="d" d="M108.31,86.35a6.34,6.34,0,1,0,6.33,6.34A6.34,6.34,0,0,0,108.31,86.35Zm0,8.23a1.9,1.9,0,1,1,1.89-1.89A1.9,1.9,0,0,1,108.31,94.58Z"/><path class="p" d="M76.29,86.72a6.33,6.33,0,1,0,0,11.93A6.34,6.34,0,0,1,76.29,86.72Z"/><path class="p" d="M110.44,86.72a6.34,6.34,0,1,0,0,11.93A6.34,6.34,0,0,1,110.44,86.72Z"/><path d="M122.24,80.25c-.09-.21.51.53-10.2-12.15a1.1,1.1,0,0,0-.85-.39H99V60.35a3.69,3.69,0,0,0-3.69-3.69H91.12a1.11,1.11,0,0,0,0,2.22h4.14a1.47,1.47,0,0,1,1.48,1.47V81H61.26V72.65h4.32v4.78a1.11,1.11,0,0,0,2.22,0V72.65h3.93v4.78a1.11,1.11,0,0,0,2.22,0V72.64a3.17,3.17,0,0,0,2.9-3.14V58.88H87.13a1.11,1.11,0,0,0,0-2.22H76.85v-3.5A3.17,3.17,0,0,0,73.68,50H49.82a3.17,3.17,0,0,0-3.16,3.16c0,.09,0,16.32,0,16.41a3.16,3.16,0,0,0,3.16,3.08H59V90a3.7,3.7,0,0,0,3.7,3.69h4.1a7.41,7.41,0,0,0,14.65,0h19.43a7.4,7.4,0,0,0,14.64,0h5.67a1.1,1.1,0,0,0,1.11-1.1V80.71A1.09,1.09,0,0,0,122.24,80.25ZM74.63,67.09,67.2,60.77l7.43-5.42Zm-.13-14.4L61.75,62,49,52.69a1,1,0,0,1,.82-.47C75.13,52.22,74.12,52,74.5,52.69ZM56.3,60.77l-7.43,6.32V55.35ZM49,69.92l9.16-7.8c3.2,2.34,3.13,2.37,3.61,2.37s.4,0,3.61-2.37l9.16,7.8a1,1,0,0,1-.84.52H49.82A1,1,0,0,1,49,69.92Zm61.7,0,8.17,9.67h-12.3V69.93ZM74.16,97.78a5.19,5.19,0,1,1,2.75-9.58A5.19,5.19,0,0,1,74.16,97.78Zm22.58-6.29H81.49a7.41,7.41,0,0,0-14.65,0h-4.1A1.48,1.48,0,0,1,61.26,90V83.19H96.74v8.3Zm11.5,6.29a5.18,5.18,0,1,1,5.19-5.18A5.18,5.18,0,0,1,108.24,97.78Zm7.32-6.29a7.4,7.4,0,0,0-14.64,0H99V69.93h5.38V80.71a1.11,1.11,0,0,0,1.11,1.11h14.69v9.67Z"/><path d="M74.16,89.6a3,3,0,1,0,3,3A3,3,0,0,0,74.16,89.6Zm0,3.77a.78.78,0,1,1,.78-.77A.78.78,0,0,1,74.16,93.37Z"/><path d="M108.24,89.6a3,3,0,1,0,3,3A3,3,0,0,0,108.24,89.6Zm0,3.77a.78.78,0,0,1,0-1.55.78.78,0,1,1,0,1.55Z"/><path d="M92.42,77.43V63.07a1.11,1.11,0,0,0-2.22,0V77.43a1.11,1.11,0,0,0,2.22,0Z"/><path d="M84.05,63.07V77.43a1.11,1.11,0,1,0,2.21,0V63.07a1.11,1.11,0,1,0-2.21,0Z"/><path d="M77.89,63.07V77.43a1.11,1.11,0,0,0,2.22,0V63.07a1.11,1.11,0,0,0-2.22,0Z"/><line class="q" x1="9.5" y1="73" x2="29.5" y2="73"/><line class="q" x1="16.5" y1="80" x2="46.5" y2="80"/><line class="q" x1="1.5" y1="87" x2="21.5" y2="87"/><polygon class="r" points="1000 100 0 100 0 100 1000 100 1000 100"/></svg>