<svg xmlns="http://www.w3.org/2000/svg" viewBox="0 0 182.03 300"><defs><style>.a{fill:#9a6b58;}.b{fill:#fed771;}.c{fill:#e5ab46;}.d,.e{fill:#1e252b;}.e{font-size:30px;stroke:#1e252b;stroke-miterlimit:10;font-family:ArialRoundedMTBold, Arial Rounded MT Bold;letter-spacing:0.05em;}.f{letter-spacing:0.03em;}</style></defs><title>url-doors</title><rect class="a" x="4.83" y="4.82" width="172.38" height="290.35"/><rect class="b" x="134.07" y="135.39" width="27.16" height="46.64"/><circle class="c" cx="147.65" cy="147.31" r="7.18"/><path class="d" d="M132.08,190.26h31.13a4.82,4.82,0,0,0,4.83-4.82V132a4.82,4.82,0,0,0-4.83-4.82H132.08a4.82,4.82,0,0,0-4.82,4.82v53.45A4.82,4.82,0,0,0,132.08,190.26Zm4.83-53.45h21.48v43.8H136.91Zm14.33,28.95a3.59,3.59,0,1,0-5.67,2.91L144.7,176h5.89l-.86-7.28A3.57,3.57,0,0,0,151.24,165.76Zm-3.59-23a4.58,4.58,0,1,0,4.58,4.58A4.58,4.58,0,0,0,147.65,142.73ZM177.2,0H4.82A4.82,4.82,0,0,0,0,4.82V295.18A4.82,4.82,0,0,0,4.82,300H177.2a4.82,4.82,0,0,0,4.83-4.82V4.82A4.82,4.82,0,0,0,177.2,0Zm-4.82,290.35H9.65V228.09h3V209.5h-3V90.5h3V71.91h-3V9.65H172.38v280.7ZM85.47,77.12A5.55,5.55,0,1,0,91,71.58,5.54,5.54,0,0,0,85.47,77.12Z"/><text class="e" transform="translate(27.77 63.34)">IM<tspan class="f" x="37.38" y="0">A</tspan><tspan x="59.71" y="0">GES</tspan></text></svg>