<?xml version="1.0" encoding="utf-8"?>
<!-- Generator: Adobe Illustrator 23.0.0, SVG Export Plug-In . SVG Version: 6.00 Build 0)  -->
<svg version="1.1" id="Capa_1" xmlns="http://www.w3.org/2000/svg" xmlns:xlink="http://www.w3.org/1999/xlink" x="0px" y="0px"
	 viewBox="0 0 512 512" style="enable-background:new 0 0 512 512;" xml:space="preserve">
<style type="text/css">
	.st0{display:none;fill:#772953;}
	.st1{fill:#772953;}
	.st2{display:none;}
	.st3{display:inline;fill:#27A2DB;}
</style>
<g>
	<path class="st0" d="M441.7,122.7c0-2.3-0.8-4.7-2.4-6.5L340.6,3.4c0,0-0.1,0-0.1-0.1c-0.6-0.6-1.3-1.2-2-1.7
		c-0.2-0.2-0.4-0.3-0.6-0.4c-0.6-0.4-1.3-0.6-2-0.8c-0.2-0.1-0.4-0.2-0.5-0.2C334.6,0.1,333.8,0,333,0H90.4C79.3,0,70.3,9,70.3,20.1
		v471.9c0,11.1,9,20.1,20.1,20.1h331.3c11.1,0,20.1-9,20.1-20.1V123.8C441.8,123.5,441.7,123.1,441.7,122.7z M191,465.9h-21.9
		l-7.6-38.6c-1.7-9-3.2-17.5-4.3-27.7h-0.3c-1.6,10.1-3,18.6-5.2,27.7l-8.5,38.6H121l-21.2-89.7h21.7l6.8,37
		c2,10.7,3.9,22.2,5.3,31.3h0.3c1.4-9.7,3.6-20.5,5.8-31.5l7.6-36.7h21.6L176,414c2,10.5,3.5,20.1,4.7,30.1h0.3
		c1.3-9.9,3.3-20.5,5.2-31.2l7.3-36.7h20.6L191,465.9z M301.8,465.9l-1.3-34.3c-0.4-10.8-0.8-23.8-0.8-36.8h-0.4
		c-2.8,11.5-6.5,24.2-9.9,34.8l-10.9,35h-15.9l-9.6-34.8c-3-10.5-6-23.3-8.1-35h-0.3c-0.5,12.1-0.9,26-1.6,37.1l-1.6,34h-18.7
		l5.7-89.7h27l8.8,29.9c2.8,10.4,5.6,21.6,7.6,32.1h0.4c2.5-10.4,5.6-22.2,8.5-32.2l9.6-29.8h26.5l4.9,89.7H301.8z M382.1,465.9
		h-23.7l-28.8-89.7h22.2l10.9,37.9c3,10.7,5.8,20.9,8,32.1h0.4c2.2-10.8,5-21.4,8.2-31.7l11.5-38.3h21.6L382.1,465.9z M90.4,341
		V20.1H323v102.8c0,5.6,4.5,10,10,10h88.7V341L90.4,341L90.4,341z"/>
	<g>
		<path class="st1" d="M302.7,404.9c0-5.3-4-8.2-11.3-8.2c-3.4,0-5.5,0.2-6.8,0.4v16.4h5.2C298.2,413.5,302.7,410.1,302.7,404.9z"/>
		<path class="st1" d="M290,424.9h-5.5v19.9c1.6,0.2,3.4,0.2,6.2,0.2c7.2,0,13.6-2.7,13.6-10.1C304.3,427.8,297.9,424.9,290,424.9z"
			/>
		<path class="st1" d="M441.7,122.7c0-2.3-0.8-4.7-2.4-6.5L340.6,3.4c0,0-0.1,0-0.1-0.1c-0.6-0.6-1.3-1.2-2-1.7
			c-0.2-0.2-0.4-0.3-0.6-0.4c-0.6-0.4-1.3-0.6-2-0.8c-0.2-0.1-0.4-0.1-0.5-0.2C334.6,0.1,333.8,0,333,0H90.4
			C79.3,0,70.3,9,70.3,20.1v471.9c0,11.1,9,20.1,20.1,20.1h331.3c11.1,0,20.1-9,20.1-20.1V123.8
			C441.8,123.5,441.7,123.1,441.7,122.7z M175,456.8h-17.6l-6.1-30.8c-1.3-7.3-2.5-14-3.4-22.1h-0.2c-1.3,8.1-2.4,14.9-4.1,22.1
			l-6.8,30.8h-17.7l-17-71.7h17.3l5.5,29.6c1.6,8.5,3,17.7,4.3,25h0.2c1.2-7.8,2.9-16.4,4.7-25.2l6.1-29.4h17.2l5.7,30.2
			c1.6,8.4,2.8,16,3.9,24h0.2c1.1-8,2.7-16.4,4.1-24.9l5.8-29.4h16.5L175,456.8z M253.2,456.8L253.2,456.8h-45.7v-71.7h44.3v13.3
			h-28v14.9h26.3v13.2h-26.3v17h29.5L253.2,456.8L253.2,456.8z M313.7,450.5c-5.1,4-13.7,6.4-27.7,6.4c-7.8,0-13.7-0.5-17.2-1.1
			v-69.2c4.2-0.8,12.6-1.4,20.6-1.4c9.7,0,15.7,1,20.8,3.9c4.9,2.6,8.4,7.4,8.4,13.8c0,6.3-3.7,12.1-11.6,15.1v0.2
			c8.1,2.2,14,8.2,14,17.4C321,441.9,318.1,446.9,313.7,450.5z M395.6,456.8l-1.1-27.4c-0.4-8.6-0.6-19.1-0.6-29.5h-0.4
			c-2.2,9.1-5.2,19.4-8,27.8l-8.7,28h-12.6l-7.6-27.8c-2.3-8.4-4.7-18.6-6.5-28H350c-0.4,9.7-0.7,20.8-1.3,29.7l-1.3,27.2h-15
			l4.6-71.7h21.6l7,23.9c2.2,8.3,4.5,17.2,6.1,25.6h0.4c2.1-8.3,4.5-17.7,6.8-25.7l7.6-23.8h21.1l3.9,71.7H395.6z M421.7,341H90.4
			l0,0V20.1H323v102.8c0,5.6,4.5,10,10,10h88.7V341z"/>
	</g>
	<path class="st1" d="M251.1,110.6c-52.3,0-94.9,42.6-94.9,94.9s42.6,94.9,94.9,94.9s94.9-42.6,94.9-94.9S303.4,110.6,251.1,110.6z
		 M251.1,283.1c-42.7,0-77.6-34.9-77.6-77.6c0-42.8,34.9-77.6,77.6-77.6c42.8,0,77.6,34.9,77.6,77.6
		C328.6,248.3,293.8,283.1,251.1,283.1z"/>
	<path class="st1" d="M222.7,149c-0.9,0.4-1.5,1.3-1.5,2.3v111.4c0,1,0.5,2,1.5,2.3l1.2,0.3c0.6,0,1.2-0.2,1.6-0.5l87.3-55.7
		c0.6-0.5,1-1.3,1-2.1c0-0.8-0.4-1.5-1-2.1l-87.3-55.6C224.6,148.6,223.5,148.5,222.7,149z"/>
</g>
<g id="webm_shapes_1_" class="st2">
	<path id="m_1_" class="st3" d="M441.6,450.4l-1.2-30.6c-0.4-9.6-0.7-21.3-0.7-32.9h-0.4c-2.5,10.2-5.8,21.6-8.9,31l-9.7,31.2h-14.1
		l-8.5-31c-2.6-9.4-5.3-20.8-7.2-31.2h-0.2c-0.5,10.8-0.8,23.2-1.4,33.1l-1.4,30.4h-16.7l5.1-80h24.1l7.8,26.7
		c2.5,9.3,5,19.2,6.8,28.6h0.4c2.3-9.3,5-19.8,7.6-28.7l8.5-26.6h23.6l4.4,80H441.6z"/>
	<path id="b_1_" class="st3" d="M342.7,407.3v-0.2c8.9-3.3,12.9-9.8,12.9-16.8c0-7.1-4-12.5-9.4-15.4c-5.7-3.4-12.4-4.4-23.2-4.4
		c-8.9,0-18.3,0.7-23,1.6v77.2c4,0.6,10.5,1.2,19.2,1.2c15.6,0,25.2-2.6,30.9-7.1c4.9-4,8.2-9.6,8.2-16.7
		C358.3,416.5,351.7,409.7,342.7,407.3z M317.6,383.8c1.5-0.2,3.7-0.5,7.6-0.5c8,0,12.6,3.1,12.6,9.1c0,5.8-5,9.7-14.3,9.7h-5.8
		v-18.3H317.6z M324.5,437.2c-3,0-5.1,0-6.9-0.2v-22.2h6.1c8.9,0,16,3.1,16,11.1C339.6,434.2,332.5,437.2,324.5,437.2z"/>
	<polygon id="e_1_" class="st3" points="282.6,450.4 231.6,450.4 231.6,370.4 281,370.4 281,385.2 249.8,385.2 249.8,401.9 
		279.2,401.9 279.2,416.6 249.8,416.6 249.8,435.6 282.6,435.6 	"/>
	<path id="w_1_" class="st3" d="M195.3,450.4h-19.6l-6.8-34.4c-1.5-8.1-2.8-15.6-3.8-24.7h-0.2c-1.4,9-2.7,16.6-4.6,24.7l-7.6,34.4
		h-19.8l-19-80h19.3l6.1,33c1.8,9.5,3.4,19.8,4.8,27.9h0.2c1.3-8.7,3.2-18.3,5.2-28.1l6.8-32.8h19.2l6.4,33.7
		c1.8,9.4,3.1,17.9,4.3,26.8h0.2c1.2-8.9,3-18.3,4.6-27.8l6.5-32.8h18.4L195.3,450.4z"/>
</g>
</svg>
