<svg xmlns="http://www.w3.org/2000/svg" viewBox="0 0 512 512"><defs><style>.a{fill:#772953;}</style></defs><title>web-av-ogv</title><path class="a" d="M145.43,389.71c-16.57,0-26.22,15.78-26.22,36.86,0,21.23,10,36.2,26.38,36.2,16.58,0,26.06-15.78,26.06-36.84C171.65,406.46,162.32,389.71,145.43,389.71Z"/><path class="a" d="M441.62,122.69a9.89,9.89,0,0,0-2.38-6.5L340.52,3.43s-.06,0-.08-.07a9.7,9.7,0,0,0-2-1.68c-.21-.14-.43-.26-.66-.39a9.87,9.87,0,0,0-2-.83c-.18-.05-.35-.13-.54-.18A10.34,10.34,0,0,0,333,0H90.35A20.1,20.1,0,0,0,70.27,20.08V491.92A20.1,20.1,0,0,0,90.35,512h331.3a20.11,20.11,0,0,0,20.08-20.08V123.81A10.88,10.88,0,0,0,441.62,122.69ZM144.3,482.24c-32.18,0-51-24.3-51-55.18,0-32.51,20.76-56.82,52.79-56.82,33.3,0,51.49,25,51.49,54.88C197.57,460.68,176,482.24,144.3,482.24Zm160-6.76a121.26,121.26,0,0,1-36.21,6.12c-19.8,0-34.11-5-44.09-14.65-10-9.33-15.45-23.49-15.28-39.43.15-36,26.39-56.63,61.95-56.63,14,0,24.78,2.74,30.09,5.32l-5.15,19.62c-5.95-2.58-13.35-4.67-25.27-4.67-20.42,0-35.87,11.59-35.87,35.08,0,22.36,14,35.56,34.11,35.56,5.63,0,10.15-.64,12.07-1.61V437.5H263.88V418.35h40.39ZM381,482.24H351.84L316.47,371.88h27.35l13.42,46.67c3.77,13.09,7.2,25.71,9.83,39.47h.49c2.79-13.27,6.23-26.38,10-39l14.08-47.15h26.53Zm40.66-141.33H90.35V20.08H322.92V122.8a10,10,0,0,0,10,10h88.69Z"/><path class="a" d="M256,114.53a96.56,96.56,0,1,0,96.56,96.56A96.56,96.56,0,0,0,256,114.53ZM196.53,232.66a24.23,24.23,0,1,1,25.72-22.6A24.23,24.23,0,0,1,196.53,232.66Zm52.69,60.17A24.22,24.22,0,1,1,275,270.23,24.23,24.23,0,0,1,249.22,292.83Zm-6.73-81.08a13.12,13.12,0,1,1,13.11,13.11A13.12,13.12,0,0,1,242.49,211.75Zm13.62-34.07a24.21,24.21,0,1,1,25.72-22.61A24.25,24.25,0,0,1,256.11,177.68Zm51.49,62.14a24.22,24.22,0,1,1,25.74-22.6A24.25,24.25,0,0,1,307.6,239.82Z"/></svg>