<?xml version="1.0" encoding="utf-8"?>
<!-- Generator: Adobe Illustrator 23.0.0, SVG Export Plug-In . SVG Version: 6.00 Build 0)  -->
<svg version="1.1" id="Layer_1" xmlns="http://www.w3.org/2000/svg" xmlns:xlink="http://www.w3.org/1999/xlink" x="0px" y="0px"
	 viewBox="0 0 429.9 763.2" style="enable-background:new 0 0 429.9 763.2;" xml:space="preserve">
<style type="text/css">
	.st0{fill:none;stroke:#EAEAEA;stroke-width:12.99;stroke-miterlimit:10;}
	.st1{fill:none;stroke:#EAEAEA;stroke-width:11.26;stroke-linecap:round;stroke-miterlimit:10;}
	.st2{fill:#EAEAEA;}
</style>
<title>page-bg</title>
<path class="st0" d="M206.1,704.1l31.1-34.6c3.3-3.7,9-4,12.7-0.7l10.6,9.5c3.7,3.3,4,9,0.7,12.7l-31.1,34.6c-3.3,3.7-9,4-12.7,0.7
	l-10.6-9.5C203.1,713.5,202.8,707.8,206.1,704.1z"/>
<path class="st0" d="M267.2,636.2l31.1-34.6c3.3-3.7,9-4,12.7-0.7l10.6,9.5c3.7,3.3,4,9,0.7,12.7l-31.1,34.6c-3.3,3.7-9,4-12.7,0.7
	l-10.6-9.5C264.2,645.6,263.9,639.9,267.2,636.2z"/>
<line class="st1" x1="243.3" y1="686.8" x2="285" y2="640.4"/>
<path class="st0" d="M55.3,449.3l37.1,28c4,3,4.8,8.6,1.8,12.6l-8.6,11.4c-3,4-8.6,4.8-12.6,1.8l-37.1-28c-4-3-4.8-8.6-1.8-12.6
	l8.6-11.4C45.7,447,51.3,446.3,55.3,449.3z"/>
<path class="st0" d="M128.2,504.4l37.1,28c4,3,4.8,8.6,1.8,12.6l-8.6,11.4c-3,4-8.6,4.8-12.6,1.8l-37.1-28c-4-3-4.8-8.6-1.8-12.6
	l8.6-11.4C118.6,502.2,124.2,501.4,128.2,504.4z"/>
<line class="st1" x1="75.7" y1="484.9" x2="125.5" y2="522.5"/>
<path class="st0" d="M311.7,384.8l-19,42.5c-2,4.5-7.3,6.6-11.9,4.6l-13-5.8c-4.5-2-6.6-7.3-4.6-11.9l19-42.5
	c2-4.5,7.3-6.6,11.9-4.6l13,5.8C311.7,375,313.7,380.3,311.7,384.8z"/>
<path class="st0" d="M274.5,468.3l-19,42.5c-2,4.5-7.3,6.6-11.9,4.6l-13-5.8c-4.5-2-6.6-7.3-4.6-11.9l19-42.5
	c2-4.5,7.3-6.6,11.9-4.6l13,5.8C274.5,458.4,276.5,463.8,274.5,468.3z"/>
<line class="st1" x1="281.6" y1="412.7" x2="256.2" y2="469.7"/>
<path class="st0" d="M73.1,255.1l10.5,45.3c1.1,4.8-1.9,9.7-6.7,10.8L63,314.4c-4.8,1.1-9.7-1.9-10.8-6.7l-10.5-45.3
	c-1.1-4.8,1.9-9.7,6.7-10.8l13.9-3.2C67.1,247.2,71.9,250.2,73.1,255.1z"/>
<path class="st0" d="M93.8,344.1l10.5,45.3c1.1,4.8-1.9,9.7-6.7,10.8l-13.9,3.2c-4.8,1.1-9.7-1.9-10.8-6.7l-10.5-45.3
	c-1.1-4.8,1.9-9.7,6.7-10.8l13.9-3.2C87.8,336.3,92.6,339.3,93.8,344.1z"/>
<line class="st1" x1="65.9" y1="295.5" x2="80" y2="356.3"/>
<path class="st0" d="M294.4,208.2l-37.3,27.8c-4,3-9.6,2.2-12.6-1.8l-8.5-11.4c-3-4-2.2-9.6,1.8-12.6l37.3-27.8
	c4-3,9.6-2.2,12.6,1.8l8.5,11.4C299.2,199.6,298.4,205.3,294.4,208.2z"/>
<path class="st0" d="M221.2,262.9l-37.3,27.8c-4,3-9.6,2.2-12.6-1.8l-8.5-11.4c-3-4-2.2-9.6,1.8-12.6l37.3-27.8
	c4-3,9.6-2.2,12.6,1.8l8.5,11.4C226,254.3,225.2,260,221.2,262.9z"/>
<line class="st1" x1="254.5" y1="217.9" x2="204.6" y2="255.2"/>
<path class="st0" d="M75.2,11l23,40.4c2.5,4.3,1,9.8-3.4,12.3l-12.4,7.1c-4.3,2.5-9.8,1-12.3-3.4L47.1,27c-2.5-4.3-1-9.8,3.4-12.3
	l12.4-7.1C67.2,5.2,72.7,6.7,75.2,11z"/>
<path class="st0" d="M120.4,90.5l23,40.4c2.5,4.3,1,9.8-3.4,12.3l-12.4,7.1c-4.3,2.5-9.8,1-12.3-3.4l-23-40.4
	c-2.5-4.3-1-9.8,3.4-12.3l12.4-7.1C112.4,84.6,117.9,86.2,120.4,90.5z"/>
<line class="st1" x1="79.8" y1="51.8" x2="110.7" y2="106"/>
<path class="st2" d="M81.1,684.5c13.6-1,25.5-7,35.6-17.9c10.7-11.5,15.9-24.8,15.7-40c-0.2-15.2-6-28.2-17.5-38.8
	c-10.5-10-24.5-15.3-39-14.8c-15.1,0.3-28.7,7-40.7,20c-7.4,8-13,17.4-16.6,27.6c-1.2,3.4,0.5,7.2,3.9,8.6l0,0
	c3.5,1.3,7.3-0.4,8.7-3.9c0,0,0-0.1,0-0.1c2.9-8.6,7.6-16.5,13.7-23.2c9.3-10,19.5-14.9,30.7-14.7c10.8,0.1,21.2,4.2,29,11.7
	c8.9,8.3,13.6,18.1,14.1,29.5c0.6,11.1-3.4,21.9-11.1,29.9c-7.3,7.8-15.9,12.2-25.9,13.1c-9.6,1-19.1-2.3-26-9
	c-5.1-4.7-8.1-9.9-9.2-15.5s-0.4-9.8,2.1-12.4c1.3-1.5,2.8-1.5,4.4,0c1.5,1.4,2.9,2.9,4.2,4.4l22.1,26.3l9.8-10.5l-1.8-3
	c4.4-0.5,8.4-2.6,11.5-5.8c4.7-5.1,6.7-11.3,6-18.6c-0.7-7.3-4.2-14-10.5-19.8c-6.2-5.8-12.7-8.8-19.4-9.1
	c-6.8-0.3-12.2,1.8-16.4,6.2c-3.7,4-5.2,9-4.5,15c-5.2-0.9-9.8,0.8-13.7,5c-5.7,6.2-8,14-6.8,23.4c1.2,9.5,5.6,17.7,13.1,24.8
	C55.9,681.6,67.5,685.6,81.1,684.5z M65.8,625.2c-0.8-4.2,0-7.6,2.4-10.1c1.6-1.8,3.9-2.3,6.7-1.7c3.2,0.8,6.1,2.4,8.4,4.8
	c3.4,3.1,5.4,6.4,6.1,9.9c0.7,3.4,0,6.3-2.1,8.5c-1.8,2-4.4,3.1-7.1,3c-3.1,0-6.1-1.3-8.3-3.5C68.7,633.1,66.6,629.3,65.8,625.2
	L65.8,625.2z"/>
<path class="st2" d="M405.8,443.4c-11.9-6.6-25.1-8.1-39.6-4.5c-15.2,3.8-26.9,12-35,24.9c-8.1,12.8-10.4,26.8-6.7,42
	c3.3,14.1,12.1,26.3,24.5,33.8c12.8,8,27.8,9.9,45.1,5.6c10.5-2.6,20.4-7.4,29-14c2.9-2.2,3.6-6.3,1.4-9.3l0,0
	c-2.2-3-6.4-3.7-9.4-1.5c0,0-0.1,0.1-0.1,0.1c-7.2,5.6-15.4,9.6-24.2,11.9c-13.2,3.3-24.5,1.8-33.7-4.5c-9-6-15.4-15.2-17.9-25.7
	c-2.9-11.8-1.4-22.6,4.4-32.4c5.6-9.6,14.9-16.5,25.7-18.9c10.4-2.6,20-1.5,28.8,3.2c8.6,4.5,14.7,12.5,16.8,21.9
	c1.7,6.7,1.4,12.7-0.8,18c-2.2,5.3-5,8.4-8.6,9.2c-1.9,0.5-3.1-0.3-3.6-2.4c-0.5-2-0.8-4-1.1-6l-4.1-34.1l-13.9,3.4l-0.1,3.5
	c-3.9-2-8.5-2.5-12.7-1.5c-6.7,1.7-11.8,5.7-15.3,12.2c-3.5,6.5-4.1,14-2,22.4c2,8.2,5.8,14.3,11.3,18.3c5.5,4,11.2,5.3,17.2,3.8
	c5.3-1.3,9.3-4.7,12-10.1c3.9,3.6,8.6,4.7,14.2,3.3c8.2-2,14.3-7.3,18.5-15.9c4.2-8.6,5.1-17.9,2.6-27.9
	C425.3,459.6,417.8,450,405.8,443.4z M386.1,501.4c-1.6,3.9-4.2,6.3-7.6,7.2c-2.3,0.6-4.5-0.2-6.5-2.3c-2.2-2.4-3.7-5.4-4.4-8.6
	c-1.1-4.5-1-8.3,0.3-11.6c1.3-3.2,3.5-5.2,6.4-6c2.6-0.6,5.4-0.1,7.6,1.4c2.6,1.7,4.4,4.4,5,7.5C388,493.2,387.7,497.5,386.1,501.4
	L386.1,501.4z"/>
<path class="st2" d="M28.9,135.2c-9.5,2.8-17.1,8.9-22.7,18.2c-5.8,9.2-7.6,20.4-5.1,31c2.5,10.8,8.6,19.2,18.4,25
	c9,5.5,19.9,7.2,30.1,4.6c10.7-2.5,19.4-9.4,26-20.5c4-6.8,6.7-14.4,7.7-22.2c0.4-2.6-1.4-5.1-4.1-5.5l0,0c-2.7-0.4-5.2,1.4-5.6,4.1
	c0,0,0,0.1,0,0.1c-0.8,6.6-2.9,12.9-6.2,18.6c-5.1,8.5-11.7,13.6-19.7,15.2c-7.7,1.6-15.8,0.2-22.5-3.9
	c-7.6-4.5-12.5-10.8-14.6-18.9c-2.1-7.8-0.9-16.1,3.4-23c3.6-6.4,9.4-11.2,16.4-13.4c6.7-2.2,14-1.3,20,2.5c4,2.2,7.1,5.6,8.9,9.7
	c1.6,3.9,1.8,6.9,0.4,9.2c-0.7,1.2-1.8,1.5-3.1,0.7c-1.3-0.8-2.5-1.6-3.7-2.5l-19.8-15.4l-5.4,9l1.8,1.8c-3.1,1-5.6,3.1-7.3,5.9
	c-2.6,4.3-3.1,9.5-1.5,14.2c1.6,5.1,5.1,9.3,10.5,12.6c5.3,3.2,10.4,4.3,15.3,3.6c4.5-0.5,8.5-3.1,10.8-7c2.1-3.5,2.4-7.7,0.9-11.4
	c3.8-0.1,7.2-2.3,9-5.7c3.1-5.3,3.6-11.2,1.3-17.8c-2.4-6.6-7-12.2-13.2-15.6C47.3,133.5,38.5,132.4,28.9,135.2z M48.9,175.2
	c1.2,2.9,1.1,5.4-0.2,7.6c-1,1.5-2.7,2.4-4.5,2.2c-2.4-0.1-4.7-0.8-6.7-2.1c-2.5-1.4-4.6-3.5-5.8-6.1c-1-2-0.9-4.4,0.2-6.4
	c1-1.7,2.7-2.9,4.6-3.2c2.2-0.5,4.6,0,6.5,1.2C45.6,170,47.7,172.4,48.9,175.2L48.9,175.2z"/>
<path class="st2" d="M244.8,134.6c-0.8-5.6-3.8-10.7-8.3-14.1c-4.7-4-10.7-5.9-16.9-5.4c-6.1,0.4-11.7,3.4-15.5,8.2
	c-3.8,4.6-5.7,10.5-5.1,16.4c0.5,6.2,3.6,11.6,9.3,16.2c3.5,2.8,7.5,4.9,11.8,6.1c1.4,0.4,3-0.4,3.4-1.8l0,0c0.5-1.5-0.4-3-1.8-3.5
	c0,0,0,0-0.1,0c-3.6-1-7-2.7-9.9-5c-4.4-3.5-6.6-7.6-6.9-12.2c-0.3-4.4,1.1-8.8,4-12.2c2.9-3.7,7.1-6.1,11.7-6.6
	c4.5-0.5,9.1,0.8,12.6,3.8c3.3,2.5,5.4,6.2,6.1,10.3c0.7,3.9-0.4,7.9-3,10.9c-1.5,2-3.7,3.5-6.1,4.2c-2.3,0.6-4,0.4-5.2-0.5
	c-0.5-0.3-0.7-1-0.3-1.6c0.1-0.1,0.1-0.2,0.2-0.2c0.5-0.6,1.1-1.3,1.7-1.8l10.2-9.8l-4.6-3.7l-1.2,0.8c-0.3-1.8-1.3-3.4-2.7-4.6
	c-2.2-1.8-5-2.5-7.8-2c-6.2,1.4-10.7,6.7-11.1,13.1c-0.1,2.5,1,5,3,6.6c1.8,1.4,4.1,2,6.3,1.5c-0.2,2.1,0.7,4.2,2.4,5.5
	c2.8,2.2,6.4,3,9.8,2.2c3.9-0.8,7.4-2.9,9.8-6.1C244.2,145.1,245.7,139.8,244.8,134.6z M220.8,142.5c-1.4,0.5-3,0.2-4.2-0.7
	c-0.8-0.7-1.1-1.7-0.9-2.7c0.2-1.3,0.8-2.6,1.7-3.6c1-1.3,2.3-2.3,3.9-2.8c1.2-0.4,2.5-0.2,3.6,0.6c0.9,0.7,1.4,1.7,1.4,2.9
	c0.1,1.3-0.4,2.6-1.2,3.5C224,141.1,222.5,142,220.8,142.5z"/>
<path class="st2" d="M85.6,751.9c-0.9,1-0.9,2.5,0.1,3.5l7.1,7.2c0,0,0,0,0,0c1,1,2.5,1,3.5,0l14.6-14.7l6,10.5
	c0.3,0.5,0.7,0.9,1.2,1.1c1.3,0.5,2.7-0.1,3.2-1.4l18.6-46.6c0.2-0.6,0.2-1.3,0-1.9c-0.5-1.3-1.9-1.8-3.2-1.3l-46.6,18.6
	c-0.5,0.2-0.9,0.6-1.2,1c-0.7,1.2-0.3,2.7,0.9,3.4l10.5,6L85.6,751.9C85.6,751.9,85.6,751.9,85.6,751.9z"/>
<path class="st2" d="M142.2,702.4c-1,1-1,2.5,0,3.5c1,1,2.5,1,3.5,0l5.5-5.5l0,0c1-1,1-2.5,0-3.5c-1-1-2.5-1-3.5,0L142.2,702.4z"/>
<path class="st2" d="M148.3,716.5h7.7c1.2-0.1,2.2-1.1,2.3-2.3c0.1-1.4-0.9-2.5-2.3-2.6h-7.7l0,0c-1.4,0-2.5,1.1-2.5,2.5
	C145.8,715.4,146.9,716.5,148.3,716.5z"/>
<path class="st2" d="M146.8,721.5L146.8,721.5c-1-1-2.5-1-3.5,0c-1,1-1,2.5,0,3.5l5.5,5.5c1,1,2.5,1,3.5,0c1-1,1-2.5,0-3.5
	L146.8,721.5L146.8,721.5z"/>
<path class="st2" d="M134.2,702.3c1.4,0,2.5-1.1,2.5-2.5v-7.7c-0.1-1.2-1.1-2.2-2.3-2.3c-1.4-0.1-2.5,0.9-2.6,2.3v7.7
	C131.7,701.2,132.8,702.3,134.2,702.3L134.2,702.3z"/>
<path class="st2" d="M124.8,705.5c0.6,0,1.3-0.3,1.7-0.7c1-1,1-2.5,0-3.5l-5.5-5.5l0,0c-1-1-2.5-1-3.5,0c-1,1-1,2.5,0,3.5l5.5,5.5
	C123.5,705.2,124.2,705.5,124.8,705.5L124.8,705.5z"/>
<path class="st2" d="M182.7,425.8l7.4-3.4c1-0.5,1.4-1.6,1-2.6l-7-15.2l9.6-1.6c0.4-0.1,0.8-0.3,1.1-0.6c0.7-0.8,0.7-2.1-0.1-2.8
	l-30.1-27.1c-0.6-0.5-1.4-0.7-2.2-0.3c-0.7,0.3-1.2,1.1-1.2,1.9l1,40.5c0,0.8,0.5,1.4,1.2,1.8c0.7,0.3,1.5,0.2,2.1-0.3l7.5-6.2
	l7,15.2C180.6,425.8,181.7,426.2,182.7,425.8z"/>
<path class="st2" d="M158.6,368c0.5,1,1.6,1.4,2.6,1c0.5-0.2,0.8-0.6,1-1.1c0.2-0.5,0.2-1,0-1.5l-2.6-5.7c0-0.1-0.1-0.3-0.2-0.4
	c-0.6-0.9-1.8-1.2-2.7-0.7c-0.9,0.6-1.2,1.8-0.7,2.7L158.6,368z"/>
<path class="st2" d="M170.8,367.4l2.2-5.9c0.2-0.9-0.2-1.9-1-2.3c-1-0.5-2.2-0.1-2.7,0.9l-2.2,5.9c-0.4,1,0.1,2.2,1.2,2.5
	C169.3,368.9,170.4,368.4,170.8,367.4z"/>
<path class="st2" d="M174.3,369.9c-0.1,0-0.3,0.1-0.4,0.2c-0.9,0.6-1.2,1.8-0.7,2.7c0.6,0.9,1.8,1.2,2.7,0.7l5.7-2.6
	c0.5-0.2,0.8-0.6,1-1.1c0.2-0.5,0.1-1-0.1-1.5c-0.4-1-1.6-1.5-2.6-1L174.3,369.9L174.3,369.9z"/>
<path class="st2" d="M155,371.6l-5.9-2.2c-0.2-0.1-0.3-0.1-0.5-0.2c-1.1-0.2-2.2,0.4-2.4,1.5c-0.2,1.1,0.4,2.2,1.5,2.4l5.9,2.2
	c1,0.4,2.2-0.1,2.5-1.2C156.5,373.1,156,372,155,371.6z"/>
<path class="st2" d="M155.9,380.7c-0.4-1-1.6-1.5-2.6-1.1l-5.7,2.6c-0.1,0-0.3,0.1-0.4,0.2c-0.9,0.6-1.2,1.8-0.7,2.7
	c0.6,0.9,1.8,1.2,2.7,0.7l5.7-2.6c0.5-0.2,0.8-0.6,1-1.1C156.1,381.6,156.1,381.1,155.9,380.7z"/>
<path class="st2" d="M184.8,30.9l-5.7-1.4c-0.4-0.1-0.8,0-1.1,0.2c-0.3,0.2-0.6,0.5-0.6,0.9l-2.8,11.6l-6.1-3.3
	c-0.3-0.2-0.6-0.2-0.9-0.2c-0.8,0.1-1.3,0.9-1.2,1.6l4.9,28.5c0.1,0.4,0.3,0.7,0.6,0.9c0.6,0.5,1.5,0.3,2-0.3l17.4-23.2
	c0.3-0.4,0.4-1,0.1-1.5c-0.2-0.5-0.7-0.8-1.3-0.8l-7,0.2l2.8-11.6C186,31.9,185.6,31.1,184.8,30.9z"/>
<path class="st2" d="M172.8,74c0.2-0.7-0.3-1.5-1-1.7c-0.4-0.1-0.8,0-1.1,0.2c-0.3,0.2-0.5,0.5-0.6,0.9l-1,4.3c0,0.1,0,0.1-0.1,0.2
	c-0.1,0.8,0.4,1.5,1.2,1.6c0.8,0.1,1.5-0.4,1.6-1.2L172.8,74z"/>
<path class="st2" d="M165.6,69l-3.8,2.3c0,0-0.1,0-0.1,0.1c-0.6,0.4-0.8,1.3-0.4,2s1.3,0.8,2,0.4l3.8-2.3c0,0,0,0,0.1,0
	c0.6-0.4,0.8-1.3,0.4-2C167.2,68.7,166.3,68.5,165.6,69z"/>
<path class="st2" d="M164.9,65.9c0.8,0.2,1.5-0.3,1.7-1c0.2-0.8-0.3-1.5-1-1.7l-4.3-1c-0.4-0.1-0.8,0-1.1,0.2
	c-0.3,0.2-0.6,0.5-0.6,0.9c-0.2,0.8,0.3,1.5,1,1.7L164.9,65.9L164.9,65.9z"/>
<path class="st2" d="M176.4,73.6l2.3,3.8c0,0,0,0.1,0.1,0.1c0.4,0.6,1.3,0.8,2,0.4s0.8-1.3,0.4-2l-2.3-3.8c0,0,0,0,0,0
	c-0.4-0.7-1.3-0.9-1.9-0.5C176.2,72,176,72.9,176.4,73.6z"/>
<path class="st2" d="M179.9,68.2c-0.2,0.8,0.3,1.5,1.1,1.7l4.3,1c0.7,0.1,1.4-0.3,1.6-1c0.2-0.8-0.2-1.5-1-1.8l-4.4-1.1
	c-0.4-0.1-0.8,0-1.1,0.2C180.2,67.5,179.9,67.8,179.9,68.2z"/>
<path class="st2" d="M412.3,677.2c0.2-8.2-2.8-15.8-8.9-22.8c-6-7.1-14.7-11.6-24-12.6c-9.5-1.1-18,1.4-25.4,7.4
	c-6.9,5.5-11.2,13.5-11.8,22.3c-0.8,9.1,2.5,17.8,9.9,26c4.5,5.1,10,9.2,16.2,12.2c2.1,1,4.6,0.3,5.6-1.7l0,0c1-2,0.2-4.5-1.9-5.5
	c0,0,0,0-0.1,0c-5.2-2.4-9.8-5.9-13.6-10.1c-5.6-6.4-8-12.9-7.2-19.6c0.7-6.5,4-12.4,9.2-16.5c5.7-4.7,12.2-6.7,19.4-6.1
	c7,0.5,13.5,3.8,17.9,9c4.3,4.6,6.7,10.5,6.6,16.6c0,5.9-2.7,11.3-7.3,15c-2.8,2.5-6.4,4-10.3,4.3c-3.6,0.2-6.1-0.6-7.6-2.3
	c-0.8-0.9-0.7-1.8,0.3-2.6c1-0.8,2-1.5,3-2.2l17.8-11.2l-5.9-6.7l-2,0.9c0-2.7-1-5.3-2.9-7.3c-2.8-3.2-6.9-5.1-11.2-5.1
	c-4.6-0.2-9,1.4-13.1,4.8c-4,3.3-6.3,6.9-7,11c-0.8,3.7,0.3,7.5,2.9,10.4c2.3,2.6,5.6,4,9.1,3.9c-0.9,3,0,6.3,2.2,8.6
	c3.5,3.9,8.2,5.9,14.2,5.9c6.1,0,11.8-2.1,16.3-5.9C408.9,692.1,412.1,685.4,412.3,677.2z M374.3,681.7c-2.7,0.1-4.7-0.6-6.2-2.3
	c-1-1.2-1.2-2.8-0.6-4.2c0.7-1.8,1.9-3.5,3.5-4.7c1.8-1.6,4.1-2.6,6.6-2.9c1.9-0.2,3.9,0.5,5.2,1.9c1.1,1.3,1.6,2.9,1.4,4.5
	c-0.2,1.9-1.2,3.6-2.7,4.7C379.4,680.6,376.9,681.6,374.3,681.7L374.3,681.7z"/>
</svg>
